<?xml version="1.0" standalone="no"?>
<!DOCTYPE svg PUBLIC "-//W3C//DTD SVG 1.1//EN" "http://www.w3.org/Graphics/SVG/1.1/DTD/svg11.dtd" >
<svg xmlns="http://www.w3.org/2000/svg">
<metadata>
Created by FontPrep 20130207 at Mon Oct  7 17:35:13 2013
 By Rodrigo Gomes Dias
2006 Dziedzic Lukasz published by FSI Fonts und Software GmbH
</metadata>
<defs>
<font id="5e628436df99f21ba7107f085b8d3c95" >
  <font-face 
    font-family="ClanOT-Medium"
    font-weight="500"
    font-stretch="normal"
    units-per-em="2048"
    panose-1="2 0 5 3 3 0 0 2 0 4"
    ascent="1612"
    descent="-436"
    x-height="1233"
    cap-height="1536"
    bbox="-262 -483 2136 1952"
    underline-thickness="79"
    underline-position="-89"
    unicode-range="U+000D-FB02"
  />
<missing-glyph horiz-adv-x="1280" 
d="M311 164h658v1208h-658v-1208zM147 0v1536h986v-1536h-986z" />
    <glyph glyph-name="fi" unicode="fi" horiz-adv-x="1443" 
d="M1120 1643q156 0 156 -122t-158 -122q-80 -1 -118 27t-37 94q1 123 157 123zM483 1034v-1034h-260v1034h-168v199h168v53q-1 156 103 252t311 96q96 0 172 -22l-6 -176q-47 12 -111 12q-209 0 -209 -168v-47h766v-1233h-264v1034h-502z" />
    <glyph glyph-name="fl" unicode="fl" horiz-adv-x="1378" 
d="M1200 0h-262v1442q-131 16 -188 16q-146 0 -206 -46t-61 -138v-41h226v-199h-226v-1034h-260v1034h-168v199h166v49q0 356 531 356q92 0 235 -15t213 -17v-1606z" />
    <glyph glyph-name=".notdef" horiz-adv-x="1280" 
d="M311 164h658v1208h-658v-1208zM147 0v1536h986v-1536h-986z" />
    <glyph glyph-name=".null" horiz-adv-x="0" 
 />
    <glyph glyph-name=".null" horiz-adv-x="0" 
 />
    <glyph glyph-name="nonmarkingreturn" horiz-adv-x="681" 
 />
    <glyph glyph-name="CR" unicode="&#xd;" horiz-adv-x="577" 
 />
    <glyph glyph-name="space" unicode=" " horiz-adv-x="577" 
 />
    <glyph glyph-name="exclam" unicode="!" horiz-adv-x="620" 
d="M162 117q0 141 154 141t153 -140q0 -140 -154 -141q-81 0 -117 33t-36 107zM410 432h-201l-41 1104h283z" />
    <glyph glyph-name="quotedbl" unicode="&#x22;" horiz-adv-x="839" 
d="M109 1573h253l-47 -531h-170zM502 1573h254l-47 -531h-170z" />
    <glyph glyph-name="numbersign" unicode="#" horiz-adv-x="1304" 
d="M575 924l-51 -312h205l49 312h-203zM92 612h223l52 312h-273v204h301l62 408h207l-62 -408h203l61 408h203l-61 -408h202v-204h-229l-51 -312h278l2 -206h-307l-61 -406h-203l59 406h-202l-62 -406h-207l62 406h-197v206z" />
    <glyph glyph-name="dollar" unicode="$" horiz-adv-x="1220" 
d="M338 1144q0 -73 57 -113t170 -79l45 363q-140 -2 -206 -50t-66 -121zM911 406q0 74 -59 120t-174 90l-53 -413q286 6 286 203zM98 1128q0 203 138 316t405 117l16 133l160 -15l-16 -127q156 -20 250 -61l-19 -242q-125 41 -264 58l-53 -404q304 -105 380 -280
q34 -78 33 -181q0 -240 -129 -354t-405 -117l-19 -139l-145 14l16 134q-219 25 -346 96q16 137 33 252q154 -88 342 -117l55 459q-94 34 -158 66t-134 84q-140 105 -140 308z" />
    <glyph glyph-name="percent" unicode="%" horiz-adv-x="1486" 
d="M1231 338q0 108 -31 148q-30 40 -100 40t-100 -40t-30 -147t30 -148q30 -39 101 -39t101 38t29 148zM1407 338q0 -358 -307 -358q-158 0 -233 88t-75 273t73 272t232 87t235 -86t75 -276zM1063 1481l151 -121l-817 -1315l-151 119zM256 1202q0 -110 31 -150t101 -40
t98 40q30 40 30 149q0 110 -30 151t-100 41t-100 -40t-30 -151zM692 1200q0 -358 -307 -358q-157 0 -231 88t-74 273t73 269t231 84t234 -83q74 -83 74 -273z" />
    <glyph glyph-name="ampersand" unicode="&#x26;" horiz-adv-x="1447" 
d="M469 1194q0 -80 80 -207q113 76 167 132q54 57 55 117t-37 90t-106 30t-114 -41q-45 -41 -45 -121zM563 221q141 0 268 107q-193 168 -342 348q-143 -129 -143 -260q0 -94 58 -145q59 -50 159 -50zM520 -27q-225 0 -334 121q-108 120 -108 282t75 272t203 208
q-131 204 -131 354q-1 150 99 250t296 100t304 -81q108 -82 108 -225t-159 -280q-68 -59 -199 -155q139 -164 311 -305q82 139 115 291h223q-23 -209 -158 -428q132 -90 265 -156l-93 -239q-158 78 -325 200q-213 -209 -492 -209z" />
    <glyph glyph-name="quotesingle" unicode="'" horiz-adv-x="446" 
d="M96 1573h254l-47 -531h-170z" />
    <glyph glyph-name="parenleft" unicode="(" horiz-adv-x="708" 
d="M174 674q0 565 326 948l202 -16q-278 -404 -278 -930t276 -934l-200 -16q-156 174 -241 420t-85 528z" />
    <glyph glyph-name="parenright" unicode=")" horiz-adv-x="706" 
d="M282 672q0 528 -276 934l201 16q326 -379 325 -948q0 -281 -85 -528t-240 -420l-201 16q276 402 276 930z" />
    <glyph glyph-name="asterisk" unicode="*" horiz-adv-x="755" 
d="M317 1612h125l19 -219l209 53l43 -129l-207 -82l127 -188l-96 -78l-154 174l-160 -174l-100 73l127 193l-209 82l47 129l211 -53z" />
    <glyph glyph-name="plus" unicode="+" horiz-adv-x="1228" 
d="M1090 569h-365v-358h-229v358h-359v244h359v361h229v-361h365v-244z" />
    <glyph glyph-name="comma" unicode="," horiz-adv-x="528" 
d="M111 121q-1 160 153 160t154 -157q0 -75 -52 -201t-116 -216l-94 23l53 250q-41 16 -70 55t-28 86z" />
    <glyph glyph-name="hyphen" unicode="-" horiz-adv-x="813" 
d="M123 797h567v-195h-567v195z" />
    <glyph glyph-name="period" unicode="." horiz-adv-x="534" 
d="M268 287q158 0 158 -155t-158 -155q-84 0 -121 36t-36 118q-1 156 157 156z" />
    <glyph glyph-name="slash" unicode="/" horiz-adv-x="925" 
d="M700 1614h226l-703 -1866h-219z" />
    <glyph glyph-name="zero" unicode="0" horiz-adv-x="1320" 
d="M826 262q124 88 124 504q0 417 -124 501q-58 40 -164 40t-166 -41q-128 -87 -128 -504q1 -417 126 -501q58 -40 166 -40t166 41zM1221 771q1 -423 -133 -608t-430 -185t-427 184t-131 608t130 604t430 180t430 -180q131 -180 131 -603z" />
    <glyph glyph-name="one" unicode="1" horiz-adv-x="1320" 
d="M350 0v205h248v821l4 164l-4 4l-301 -184l-29 233l447 295h166v-1333h241v-205h-772z" />
    <glyph glyph-name="two" unicode="2" horiz-adv-x="1320" 
d="M528 250h648l-7 -250h-1005v186q56 56 158 152q155 148 278 271q122 124 187 220q65 95 83 151t19 107q0 97 -69 155t-212 58q-197 0 -383 -141l-67 230q209 164 499 163q249 0 383 -116t134 -325q0 -208 -185 -421q-96 -111 -196 -205t-265 -229v-6z" />
    <glyph glyph-name="three" unicode="3" horiz-adv-x="1320" 
d="M1194 461q0 -225 -144 -352t-423 -127t-477 118l55 224q186 -106 401 -107q158 0 240 69q82 68 82 186t-100 174t-347 56v201q231 0 326 55q94 56 94 156q0 198 -285 197q-219 0 -397 -140l-67 220q201 161 465 161t401 -108t137 -299q0 -236 -227 -334v-4
q266 -84 266 -346z" />
    <glyph glyph-name="four" unicode="4" horiz-adv-x="1320" 
d="M823 547l11 573l8 166l-4 2l-355 -600l-86 -135l2 -6h424zM1069 309v-309h-254v309h-692l-25 178l639 1049h332v-989h174l-8 -238h-166z" />
    <glyph glyph-name="five" unicode="5" horiz-adv-x="1320" 
d="M1184 526q0 -545 -555 -544q-266 0 -463 118l51 226q193 -109 371 -109t251 71t73 206t-72 191t-244 56t-315 -63l-101 108l64 750h858l10 -250h-653l-27 -346q127 33 258 33q242 0 368 -112t126 -335z" />
    <glyph glyph-name="six" unicode="6" horiz-adv-x="1320" 
d="M938 539q0 123 -64 180t-202 57q-74 0 -157 -33t-128 -86q2 -244 69 -341t216 -97q266 1 266 320zM1206 535q0 -553 -544 -553q-272 0 -411 174q-140 174 -140 578t167 612q167 209 492 208q195 0 348 -59l-20 -240q-139 49 -295 50q-205 -1 -306 -101t-122 -317l4 -4
q154 109 344 108q483 1 483 -456z" />
    <glyph glyph-name="seven" unicode="7" horiz-adv-x="1320" 
d="M1212 1534v-238l-608 -1296h-311l649 1268h-825l12 266h1083z" />
    <glyph glyph-name="eight" unicode="8" horiz-adv-x="1320" 
d="M418 1141q0 -128 137 -187q51 -24 85 -34t101 -31q174 94 174 239q-1 203 -249 203t-248 -190zM948 420q0 81 -47 126q-18 17 -43 41t-91 48q-67 24 -110 40t-86 27q-201 -106 -200 -264q1 -123 71 -179t228 -56q278 0 278 217zM109 440q0 113 61 209t172 158
q-178 115 -178 346q0 193 123 297t377 104q496 0 495 -403q0 -217 -190 -338v-4q246 -111 245 -371q0 -457 -552 -457t-553 459z" />
    <glyph glyph-name="nine" unicode="9" horiz-adv-x="1320" 
d="M633 1317q-264 0 -264 -253t278 -253q193 0 285 117q-2 207 -79 298t-220 91zM1202 836q0 -449 -156 -652t-477 -202q-215 0 -374 71l38 230q151 -61 329 -61t270 108q92 109 106 354l-4 4q-130 -98 -356 -98t-349 124t-123 352t132 358t402 130t416 -180t146 -538z" />
    <glyph glyph-name="colon" unicode=":" horiz-adv-x="534" 
d="M268 287q158 0 158 -155t-158 -155q-84 0 -121 36t-36 118q-1 156 157 156zM268 1166q158 0 158 -155t-158 -155q-84 0 -121 36t-36 118q-1 156 157 156z" />
    <glyph glyph-name="semicolon" unicode=";" horiz-adv-x="540" 
d="M117 121q-1 160 153 160t154 -157q0 -75 -52 -201t-116 -216l-94 23l53 250q-41 16 -70 55t-28 86zM117 1010q-1 156 157 156t158 -155t-158 -155q-84 0 -120 36t-37 118z" />
    <glyph glyph-name="less" unicode="&#x3c;" horiz-adv-x="1228" 
d="M1049 946l-404 -192l-149 -68v-6l149 -68l404 -192v-256l-869 452v134l867 462z" />
    <glyph glyph-name="equal" unicode="=" horiz-adv-x="1228" 
d="M1073 373h-919v209h919v-209zM1073 772h-919v209h919v-209z" />
    <glyph glyph-name="greater" unicode="&#x3e;" horiz-adv-x="1228" 
d="M180 164v256l402 190l151 68v6l-151 68l-402 194v266l869 -462v-134z" />
    <glyph glyph-name="question" unicode="?" horiz-adv-x="1046" 
d="M346 117q0 141 154 141t153 -140q0 -140 -153 -141q-80 0 -117 33t-37 107zM973 1180q0 -311 -361 -500l-10 -248h-205l-16 346q166 94 245 174t79 185q0 174 -226 174q-193 0 -332 -123l-94 211q80 71 202 115t259 45q225 -1 342 -101t117 -278z" />
    <glyph glyph-name="at" unicode="@" horiz-adv-x="1798" 
d="M682 587q0 -169 129 -169q66 0 117 60t65 159l51 307q-33 61 -112 62q-104 0 -177 -125t-73 -294zM920 1192q123 0 188 -84l31 70l143 -9l-90 -544q-6 -37 -6 -74q0 -152 127 -152q109 0 177 109t66 326q0 284 -156 462t-448 179q-340 -1 -523 -219t-183 -561t179 -556
t541 -213t595 203l61 -137q-262 -217 -669 -217t-635 247t-228 680q0 383 220 649q104 129 272 203t372 74q344 0 549 -221t205 -571q0 -307 -119 -460t-302 -153t-247 148q-113 -147 -288 -148q-127 0 -206 94t-79 277q0 240 132 419q133 179 321 179z" />
    <glyph glyph-name="A" unicode="A" horiz-adv-x="1480" 
d="M733 1329l-47 -160l-186 -600h467l-185 600l-43 160h-6zM1141 0l-101 330h-614l-102 -330h-301l546 1536h338l551 -1536h-317z" />
    <glyph glyph-name="B" unicode="B" horiz-adv-x="1411" 
d="M977 1098q0 104 -52 149t-169 45h-314v-397h326q106 0 158 49q51 50 51 154zM1022 459q0 119 -57 170t-187 51h-336v-442h342q123 0 181 51q57 51 57 170zM1305 442q0 -442 -523 -442h-612v1536h596q238 0 360 -100t121 -289q0 -250 -207 -332v-4q265 -74 265 -369z" />
    <glyph glyph-name="C" unicode="C" horiz-adv-x="1230" 
d="M819 227q162 0 309 66l33 -236q-176 -86 -379 -86q-346 0 -512 198t-166 601t169 598t526 195q198 0 356 -68l-31 -248q-143 55 -311 56q-227 0 -319 -115t-92 -418t94 -423t323 -120z" />
    <glyph glyph-name="D" unicode="D" horiz-adv-x="1505" 
d="M721 258q211 0 297 106t86 404q0 299 -85 403t-298 105h-268v-1018h268zM723 1536q356 0 516 -180t160 -586t-164 -588t-508 -182h-557v1536h553z" />
    <glyph glyph-name="E" unicode="E" horiz-adv-x="1271" 
d="M453 252h737l-6 -252h-1014v1536h983l4 -256h-704v-371h598v-231h-598v-426z" />
    <glyph glyph-name="F" unicode="F" horiz-adv-x="1214" 
d="M453 1274v-393h587l-2 -248h-585v-633h-283v1536h981l6 -262h-704z" />
    <glyph glyph-name="G" unicode="G" horiz-adv-x="1386" 
d="M1270 821v-764q-188 -86 -453 -86q-375 0 -544 193q-169 192 -169 602t174 604t547 193q227 0 416 -72l-29 -252q-168 68 -392 68t-321 -116t-97 -423t90 -422t317 -115q115 0 211 29v561h250z" />
    <glyph glyph-name="H" unicode="H" horiz-adv-x="1529" 
d="M1360 0h-283v659h-624v-659h-283v1536h283v-616h624v616h283v-1536z" />
    <glyph glyph-name="I" unicode="I" horiz-adv-x="675" 
d="M195 0v1536h286v-1536h-286z" />
    <glyph glyph-name="J" unicode="J" horiz-adv-x="1126" 
d="M956 1536v-993q0 -571 -579 -572q-180 0 -307 74l18 246q94 -66 248 -66q332 0 332 324v987h288z" />
    <glyph glyph-name="K" unicode="K" horiz-adv-x="1458" 
d="M453 674v-674h-283v1536h283v-627h196l414 627h330l-492 -729l518 -807h-344l-432 674h-190z" />
    <glyph glyph-name="L" unicode="L" horiz-adv-x="1169" 
d="M455 260h669l-6 -260h-948v1536h285v-1276z" />
    <glyph glyph-name="M" unicode="M" horiz-adv-x="1882" 
d="M170 1536h315l394 -979l59 -154h6l57 154l398 979h313v-1536h-258v887l4 166l-6 2l-59 -156l-361 -899h-192l-359 899l-59 156l-4 -2l2 -166v-887h-250v1536z" />
    <glyph glyph-name="N" unicode="N" horiz-adv-x="1540" 
d="M1370 0h-199l-655 936l-92 139l-4 -2l2 -166v-907h-252v1536h246l704 -1034l4 2l-4 164v868h250v-1536z" />
    <glyph glyph-name="O" unicode="O" horiz-adv-x="1525" 
d="M1124 769q0 312 -78 422q-79 109 -283 109t-283 -110t-79 -422q0 -311 80 -424t283 -113t282 113q78 113 78 425zM1419 766q-1 -420 -153 -607t-501 -187t-505 190t-156 607t155 604t505 187t502 -186q152 -188 153 -608z" />
    <glyph glyph-name="P" unicode="P" horiz-adv-x="1347" 
d="M702 766q150 0 214 56t65 206q0 150 -63 208t-216 58h-249v-528h249zM702 1536q302 0 436 -122t134 -377t-136 -379t-434 -123h-249v-535h-283v1536h532z" />
    <glyph glyph-name="Q" unicode="Q" horiz-adv-x="1525" 
d="M1124 769q0 312 -78 422q-79 109 -283 109t-283 -110t-79 -422q0 -311 80 -424t283 -113t282 113q78 113 78 425zM1419 768q0 -346 -101 -530t-325 -236v-6l307 -225l-331 -84l-248 284q-324 9 -470 201q-147 192 -147 603t155 598t505 187t502 -186q152 -188 153 -606z
" />
    <glyph glyph-name="R" unicode="R" horiz-adv-x="1376" 
d="M707 823q133 -1 190 53t57 185t-55 182t-184 51h-262v-471h254zM1247 1075q1 -167 -71 -275t-205 -141l379 -659h-332l-303 604h-262v-604h-283v1536h543q272 0 403 -112t131 -349z" />
    <glyph glyph-name="S" unicode="S" horiz-adv-x="1173" 
d="M1104 451q0 -223 -144 -351t-405 -129q-260 0 -463 115l39 252q201 -115 422 -115q279 0 278 209q0 78 -75 130q-76 52 -182 87t-215 81q-107 46 -183 141t-76 239q0 201 134 327t384 126t435 -82l-37 -244q-193 70 -369 70q-274 0 -274 -183q0 -76 76 -126t182 -84
t214 -80q107 -46 183 -142t76 -241z" />
    <glyph glyph-name="T" unicode="T" horiz-adv-x="1208" 
d="M748 1274v-1274h-287v1274h-432l6 262h1139l6 -262h-432z" />
    <glyph glyph-name="U" unicode="U" horiz-adv-x="1497" 
d="M1352 1536v-985q0 -580 -603 -580t-604 580v985h281v-983q0 -166 79 -243t245 -77t242 77t77 243v983h283z" />
    <glyph glyph-name="V" unicode="V" horiz-adv-x="1437" 
d="M1118 1536h293l-532 -1536h-320l-532 1536h311l340 -1106l45 -158h6l45 158z" />
    <glyph glyph-name="W" unicode="W" horiz-adv-x="2097" 
d="M901 1536h307l281 -1260h6l29 162l219 1098h280l-364 -1536h-342l-234 1096l-30 164h-6l-267 -1260h-340l-366 1536h293l219 -1104l30 -162h7l30 162z" />
    <glyph glyph-name="X" unicode="X" horiz-adv-x="1443" 
d="M1364 1536l-442 -735l467 -801h-324l-266 487l-74 148h-6l-74 -150l-258 -485h-330l457 795l-444 741h338l315 -573h6l76 145l235 428h324z" />
    <glyph glyph-name="Y" unicode="Y" horiz-adv-x="1402" 
d="M850 0h-289v504l-534 1032h319l363 -776h6l63 151l289 625h309l-526 -1032v-504z" />
    <glyph glyph-name="Z" unicode="Z" horiz-adv-x="1263" 
d="M84 0v188l647 951l94 131l-2 4h-721l11 262h1054v-213l-632 -928l-95 -129l2 -6h729l-4 -260h-1083z" />
    <glyph glyph-name="bracketleft" unicode="[" horiz-adv-x="696" 
d="M174 -266v1882h516v-191h-278v-1505h278v-186h-516z" />
    <glyph glyph-name="backslash" unicode="\" horiz-adv-x="778" 
d="M-8 1614h213l610 -1866h-211z" />
    <glyph glyph-name="bracketright" unicode="]" horiz-adv-x="696" 
d="M522 1616v-1882h-516v184h281v1507h-281v191h516z" />
    <glyph glyph-name="asciicircum" unicode="^" horiz-adv-x="1320" 
d="M991 950l-332 500l-327 -500h-213l452 697h183l446 -697h-209z" />
    <glyph glyph-name="underscore" unicode="_" horiz-adv-x="864" 
d="M41 -84h786v-164h-786v164z" />
    <glyph glyph-name="grave" unicode="`" 
d="M618 1348h-200l-234 297h303z" />
    <glyph glyph-name="a" unicode="a" horiz-adv-x="1181" 
d="M793 362v181q-74 35 -209 35q-244 0 -244 -194t207 -194q96 0 171 52t75 120zM793 815q-1 115 -61 165t-220 50t-319 -69l-23 215q182 80 424 80t350 -114t107 -366v-776h-199l-23 131l-6 2q-121 -154 -348 -153q-178 0 -279 100q-102 100 -102 288t116 291
q116 102 327 103q135 0 256 -39v92z" />
    <glyph glyph-name="b" unicode="b" horiz-adv-x="1296" 
d="M674 190q134 0 202 90t68 331t-65 325t-221 84t-240 -121v-584q80 -125 256 -125zM745 1253q465 0 465 -639t-495 -639q-213 0 -344 138l-37 -113h-176v1604l260 14v-320l-4 -163l6 -5q125 123 325 123z" />
    <glyph glyph-name="c" unicode="c" horiz-adv-x="1015" 
d="M354 616q0 -414 314 -413q150 0 256 57l18 -209q-119 -78 -315 -78q-543 0 -543 645q0 314 133 474t416 159q164 0 299 -55l-17 -229q-111 47 -227 47q-184 0 -259 -90t-75 -308z" />
    <glyph glyph-name="d" unicode="d" horiz-adv-x="1292" 
d="M641 1016q-162 0 -224 -91q-63 -91 -63 -321t60 -320t227 -92q168 0 238 123v588q-76 113 -238 113zM1139 0h-203l-29 117l-6 2q-119 -143 -353 -143t-348 157q-116 158 -116 488q0 635 471 634q195 0 324 -125l4 5l-4 163v306l260 14v-1618z" />
    <glyph glyph-name="e" unicode="e" horiz-adv-x="1191" 
d="M614 1032q-132 0 -194 -70t-72 -229h522q-6 299 -256 299zM680 -23q-309 0 -453 163q-143 164 -143 480q0 636 528 633q236 0 367 -142t131 -429q0 -70 -6 -125h-750q8 -190 92 -269t262 -79t334 67l31 -215q-172 -84 -393 -84z" />
    <glyph glyph-name="f" unicode="f" horiz-adv-x="827" 
d="M483 0h-260v1034h-168v199h166v53q-1 156 103 252t313 96q104 0 190 -28l-16 -172q-66 14 -125 14q-203 0 -203 -168v-47h287v-199h-287v-1034z" />
    <glyph glyph-name="g" unicode="g" horiz-adv-x="1187" 
d="M589 692q107 0 151 42t44 139t-47 139t-155 41q-108 0 -153 -43q-46 -42 -46 -140t50 -138t156 -40zM588 -131q320 0 318 139q0 63 -44 91q-43 28 -164 36l-297 23q-74 -61 -73 -131q0 -158 260 -158zM582 508q-90 0 -162 14q-66 -27 -66 -73q0 -61 92 -68l297 -21
q213 -14 305 -89t93 -216q0 -387 -547 -387q-248 0 -369 88t-121 226t107 225q-96 61 -96 176q0 137 151 201l2 4q-141 90 -141 289q0 377 455 376q195 0 305 -71l205 73l55 -129l-137 -102q25 -61 24 -147q0 -181 -106 -275t-346 -94z" />
    <glyph glyph-name="h" unicode="h" horiz-adv-x="1290" 
d="M1159 0h-262v799q0 219 -233 219q-80 0 -147 -32t-99 -83v-903h-260v1604l260 14v-315l-4 -164l6 -4q130 121 326 121t305 -120t108 -337v-799z" />
    <glyph glyph-name="i" unicode="i" horiz-adv-x="647" 
d="M168 1518q0 125 156 125t155 -123q0 -123 -155 -123q-80 -1 -118 27t-38 94zM455 0h-265v1225l265 14v-1239z" />
    <glyph glyph-name="j" unicode="j" horiz-adv-x="645" 
d="M166 1520q0 123 154 123t155 -122q0 -122 -153 -122q-82 -1 -119 27t-37 94zM455 -2q0 -330 -326 -330q-84 0 -158 27l15 188q39 -12 80 -12q129 0 129 135v1219l260 14v-1241z" />
    <glyph glyph-name="k" unicode="k" horiz-adv-x="1236" 
d="M418 770h176l303 463h295l-375 -561l387 -672h-297l-313 553h-176v-553h-260v1604l260 14v-848z" />
    <glyph glyph-name="l" unicode="l" horiz-adv-x="620" 
d="M440 0h-262v1604l262 14v-1618z" />
    <glyph glyph-name="m" unicode="m" horiz-adv-x="1912" 
d="M1782 0h-260v801q0 215 -217 215q-93 0 -151 -51t-58 -150v-815h-260v815q0 203 -209 203q-66 0 -126 -31t-93 -82v-905h-261v1227l187 12l45 -123q133 137 317 137q236 0 330 -176q113 176 348 176q186 -1 297 -115t111 -333v-805z" />
    <glyph glyph-name="n" unicode="n" horiz-adv-x="1280" 
d="M1149 0h-260v797q0 221 -236 221q-73 0 -141 -31t-104 -82v-905h-261v1227l187 14l41 -119q143 133 346 133q203 1 315 -117t113 -339v-799z" />
    <glyph glyph-name="o" unicode="o" horiz-adv-x="1269" 
d="M354 612q0 -240 64 -330t218 -92q155 0 217 92t62 330q0 240 -62 331t-217 91q-154 0 -218 -91t-64 -331zM1184 611q0 -341 -129 -491t-418 -149q-289 0 -421 151q-132 152 -132 490t133 491t421 153t417 -152t129 -493z" />
    <glyph glyph-name="p" unicode="p" horiz-adv-x="1286" 
d="M932 614q0 232 -64 318t-218 86t-238 -121v-571q78 -125 243 -125q135 0 206 90q71 91 71 323zM746 1253q224 1 338 -145q116 -146 116 -480t-126 -492t-339 -159q-213 0 -321 115l-6 -2l4 -166v-233h-265v1534l185 12l51 -117q139 133 363 133z" />
    <glyph glyph-name="q" unicode="q" horiz-adv-x="1286" 
d="M629 1014q-154 0 -214 -85q-61 -85 -61 -313t65 -319q65 -90 212 -90q100 0 166 39q65 39 77 90v563q-26 49 -94 82t-151 33zM567 -18q-227 0 -355 154t-128 478q0 639 489 639q231 0 357 -143h6l33 121h166v-1540l-261 -2v229l5 166l-5 2q-121 -104 -307 -104z" />
    <glyph glyph-name="r" unicode="r" horiz-adv-x="925" 
d="M408 0h-261v1225l209 12l23 -231h6q117 246 354 245q76 0 129 -16l-16 -264q-66 20 -129 20q-137 0 -226 -100t-89 -270v-621z" />
    <glyph glyph-name="s" unicode="s" horiz-adv-x="1013" 
d="M938 375q0 -187 -112 -293t-342 -106t-384 92l31 221q145 -96 352 -96q106 0 160 43q53 43 53 110q0 68 -61 108t-151 66t-177 62q-88 36 -149 112t-62 195q0 166 116 265t318 99t359 -69l-23 -217q-152 63 -323 63q-93 0 -145 -35t-52 -95t62 -96t148 -62
q87 -26 173 -60q85 -34 147 -110q62 -78 62 -197z" />
    <glyph glyph-name="t" unicode="t" horiz-adv-x="815" 
d="M758 1032h-289v-686q0 -154 162 -153q61 0 100 14l17 -195q-74 -33 -193 -32q-172 0 -259 93t-87 267v692h-154v201h162l47 289l205 20v-309h289v-201z" />
    <glyph glyph-name="u" unicode="u" horiz-adv-x="1263" 
d="M1133 1233v-811q0 -444 -502 -445q-250 0 -375 115t-125 330v811h260v-805q0 -215 241 -215t240 215v805h261z" />
    <glyph glyph-name="v" unicode="v" horiz-adv-x="1323" 
d="M987 1233h285l-459 -1233h-305l-459 1233h287l323 -1002h7l47 158z" />
    <glyph glyph-name="w" unicode="w" horiz-adv-x="1806" 
d="M772 1233h275l192 -862l33 -162h6l27 164l165 860h254l-284 -1233h-324l-168 795l-30 163h-7l-32 -163l-177 -795h-319l-301 1233h262l203 -1020h6l31 162z" />
    <glyph glyph-name="x" unicode="x" horiz-adv-x="1257" 
d="M891 0l-195 360l-73 148h-7l-73 -150l-191 -358h-291l385 623l-376 610h305l258 -485h6l74 147l180 338h293l-365 -604l375 -629h-305z" />
    <glyph glyph-name="y" unicode="y" horiz-adv-x="1323" 
d="M377 -137q139 0 201 135l6 18l-535 1217h299l361 -975h6l41 160l239 815h279l-436 -1237q-66 -178 -166 -255t-232 -77t-219 39l23 191q61 -31 133 -31z" />
    <glyph glyph-name="z" unicode="z" horiz-adv-x="1105" 
d="M102 0v186l496 691l98 129l-2 4h-573l10 223h866v-186l-493 -693l-98 -127l2 -6h604l-8 -221h-902z" />
    <glyph glyph-name="braceleft" unicode="{" horiz-adv-x="776" 
d="M543 899q0 -158 -121 -217v-6q121 -63 121 -215q1 -74 -13 -188q-14 -113 -14 -183t46 -115t143 -45h65v-198h-53q-233 0 -335 83q-101 83 -101 246q0 74 17 205q17 132 17 196t-39 107t-102 54v112q63 10 102 53t39 107t-17 197t-17 204q0 164 101 247t335 83h53v-199
h-65q-188 0 -189 -165q0 -63 14 -177t13 -186z" />
    <glyph glyph-name="bar" unicode="|" horiz-adv-x="585" 
d="M193 -365v2022h202v-2022h-202z" />
    <glyph glyph-name="braceright" unicode="}" horiz-adv-x="776" 
d="M233 461q0 152 123 215v6q-123 59 -123 217q-1 71 13 185t14 184t-46 114t-142 45h-66v199h53q233 0 333 -83t102 -247q0 -72 -16 -204t-17 -196q0 -64 39 -108t102 -53v-112q-63 -9 -102 -53t-39 -108t16 -196q16 -131 17 -205q0 -165 -100 -247t-335 -82h-53v198h66
q96 0 142 45t46 115t-13 183q-14 114 -14 188z" />
    <glyph glyph-name="asciitilde" unicode="~" horiz-adv-x="1320" 
d="M451 1589q82 -1 219 -69t196 -68q100 0 133 111h152q-25 -350 -283 -351q-84 0 -218 69t-191 69q-109 0 -140 -113h-151q25 352 283 352z" />
    <glyph glyph-name="uni00A0" unicode="&#xa0;" horiz-adv-x="577" 
 />
    <glyph glyph-name="exclamdown" unicode="&#xa1;" horiz-adv-x="618" 
d="M459 1219q1 -141 -153 -141t-154 140t153 140q80 0 117 -33t37 -106zM205 918h211l33 -1192h-277z" />
    <glyph glyph-name="cent" unicode="&#xa2;" horiz-adv-x="1032" 
d="M362 616q0 -414 314 -413q150 0 256 57l18 -209q-90 -61 -237 -74l-17 -253h-204l16 260q-416 66 -416 642t465 621l18 248h203l-18 -254q98 -12 180 -45l-16 -229q-111 47 -228 47q-184 0 -259 -90t-75 -308z" />
    <glyph glyph-name="sterling" unicode="&#xa3;" horiz-adv-x="1292" 
d="M176 1108q0 201 139 327t447 126q211 0 387 -72l-35 -244q-147 61 -319 61t-252 -62t-80 -158t37 -216h526v-215h-475q10 -66 10 -127q0 -201 -143 -292l4 -7q166 39 380 39t419 -26q-1 -2 -7 -126t-8 -130q-492 58 -1097 4l-13 250q92 23 145 99q52 77 52 153t-12 163
h-150l-12 215h102q-45 139 -45 238z" />
    <glyph glyph-name="currency" unicode="&#xa4;" horiz-adv-x="1216" 
d="M606 950q-88 0 -150 -59t-61 -144q-1 -85 61 -143t151 -59q89 0 150 58q60 57 60 143t-61 145q-62 59 -150 59zM223 748q0 104 53 194l-139 143l137 148l146 -150q86 51 188 51t189 -51l147 152l137 -150l-141 -147q51 -90 51 -190t-43 -189l133 -135l-137 -150l-133 136
q-92 -58 -203 -58t-202 58l-134 -138l-137 150l133 137q-45 85 -45 189z" />
    <glyph glyph-name="yen" unicode="&#xa5;" horiz-adv-x="1472" 
d="M313 725h205l-420 811h320l264 -670l57 -153h6l56 155l260 668h311l-407 -811h211v-152h-279v-94h279v-149h-279v-330h-309v330h-275v149h275v94h-275v152z" />
    <glyph glyph-name="brokenbar" unicode="&#xa6;" horiz-adv-x="585" 
d="M193 -342v893h202v-893h-202zM193 764v893h202v-893h-202z" />
    <glyph glyph-name="section" unicode="&#xa7;" horiz-adv-x="1159" 
d="M834 586q0 87 -90 151t-167 99q-76 36 -85 43q-131 -51 -132 -158q0 -87 83 -148t164 -101q82 -40 93 -46q134 51 134 160zM109 676q0 217 182 321q-150 109 -150 252q0 170 123 261q124 92 360 92t392 -89l-23 -200q-174 80 -364 80q-219 0 -219 -133q0 -55 69 -103
q70 -47 169 -89q98 -42 198 -95t170 -145t69 -214q0 -203 -184 -307q150 -111 150 -250q0 -170 -122 -261q-121 -91 -359 -91t-390 88l21 201q174 -80 362 -80q219 0 219 133q0 55 -69 103q-70 47 -168 89q-97 42 -197 95t-170 145q-69 91 -69 197z" />
    <glyph glyph-name="dieresis" unicode="&#xa8;" 
d="M707 1523q0 -118 -115 -118q-59 0 -88 27t-29 90q0 119 117 118q115 1 115 -117zM354 1523q0 -118 -116 -118q-59 0 -87 27t-28 90q0 119 115 118q116 1 116 -117z" />
    <glyph glyph-name="copyright" unicode="&#xa9;" horiz-adv-x="1816" 
d="M659 773q-1 -130 89 -209t236 -79t259 66q10 -59 27 -182q-62 -53 -156 -90t-192 -37q-229 0 -377 152q-147 153 -147 374t142 374q144 153 382 152q196 0 325 -106q-12 -131 -20 -189q-104 59 -250 59t-232 -77q-86 -78 -86 -208zM240 775q0 -271 194 -468t474 -197
t476 196t197 467q0 271 -197 465q-196 194 -476 194t-474 -193t-194 -464zM908 -29q-332 -1 -568 235t-236 569t236 567t568 234t569 -234q235 -234 235 -567t-236 -569t-568 -235z" />
    <glyph glyph-name="ordfeminine" unicode="&#xaa;" horiz-adv-x="886" 
d="M565 1008v125q-41 20 -125 20q-152 0 -151 -129q0 -127 129 -127q59 0 103 33t44 78zM368 711q-288 0 -288 311q0 133 84 214t233 81q96 0 170 -29v62q0 74 -41 106q-42 32 -150 31q-108 0 -222 -49l-19 186q141 62 317 62t255 -88q80 -88 79 -285v-590h-172l-18 90l-6 2
q-82 -104 -222 -104z" />
    <glyph glyph-name="guillemotleft" unicode="&#xab;" horiz-adv-x="1308" 
d="M668 885l-359 -223l359 -226v-207l-619 422v21l619 422v-209zM1153 885l-358 -223l358 -226v-207l-618 422v21l618 422v-209z" />
    <glyph glyph-name="logicalnot" unicode="&#xac;" horiz-adv-x="1320" 
d="M897 580h-686v231h899v-543h-213v312z" />
    <glyph glyph-name="uni00AD" unicode="&#xad;" horiz-adv-x="813" 
d="M123 797h567v-195h-567v195z" />
    <glyph glyph-name="registered" unicode="&#xae;" horiz-adv-x="909" 
d="M541 1401q0 49 -64 49h-78v-98h84q58 0 58 49zM647 1407q0 -88 -74 -115l82 -166h-116l-68 152h-72v-152h-110v416h186q172 0 172 -135zM150 1326q0 -126 91 -216t216 -90t215 90t90 216t-89 215t-216 89t-217 -89t-90 -215zM76 1326q0 158 112 272t268 114t268 -114
t112 -272t-112 -272q-112 -112 -268 -112t-268 112t-112 272z" />
    <glyph glyph-name="macron" unicode="&#xaf;" 
d="M727 1589v-166h-621v166h621z" />
    <glyph glyph-name="degree" unicode="&#xb0;" horiz-adv-x="712" 
d="M201 1393q0 -63 45 -107q44 -44 110 -43q66 0 111 43t45 108q0 66 -45 108t-112 42t-111 -44t-43 -107zM356 1112q-116 0 -196 83t-80 199t80 198t196 81q116 0 196 -82q81 -81 81 -197t-81 -199t-196 -83z" />
    <glyph glyph-name="plusminus" unicode="&#xb1;" horiz-adv-x="1320" 
d="M1122 96h-927v201h927v-201zM1126 690h-354v-317h-231v317h-346v225h346v336h231v-336h354v-225z" />
    <glyph glyph-name="twosuperior" unicode="&#xb2;" horiz-adv-x="745" 
d="M366 1829q158 1 234 -65t76 -177t-83 -199t-265 -214v-7h348l-2 -157h-588v123q39 35 121 105q222 191 256 261q16 35 16 70q0 98 -139 98q-102 0 -219 -74l-45 150q131 86 290 86z" />
    <glyph glyph-name="threesuperior" unicode="&#xb3;" horiz-adv-x="745" 
d="M682 1251q0 -252 -338 -252q-158 0 -274 68l41 143q102 -59 233 -59q156 0 156 111q0 54 -49 78t-187 24v129q127 0 175 25t48 73q0 84 -134 84t-240 -71l-43 139q123 86 277 86q153 1 235 -59t82 -174t-123 -162v-4q141 -42 141 -179z" />
    <glyph glyph-name="acute" unicode="&#xb4;" 
d="M438 1645h303l-239 -297h-199z" />
    <glyph glyph-name="uni00B5" unicode="&#xb5;" horiz-adv-x="1280" 
d="M652 -20q-186 0 -275 151l-4 -2q14 -283 28 -432l-254 -21v1557h263l-2 -803q0 -100 68 -158q69 -57 176 -57t171 50q63 50 64 143v825h260v-1227l-184 -16l-35 100h-6q-84 -110 -270 -110z" />
    <glyph glyph-name="paragraph" unicode="&#xb6;" horiz-adv-x="1398" 
d="M379 -319v1292q-139 6 -223 81t-84 204q0 130 85 204t234 74h922l-10 -217h-156v-1638h-229v1638h-312l2 -1638h-229z" />
    <glyph glyph-name="periodcentered" unicode="&#xb7;" horiz-adv-x="593" 
d="M139 707q0 156 158 156t158 -155t-158 -155q-84 0 -121 36t-37 118z" />
    <glyph glyph-name="cedilla" unicode="&#xb8;" 
d="M236 -389l139 407l172 5l-74 -412h-237z" />
    <glyph glyph-name="onesuperior" unicode="&#xb9;" horiz-adv-x="571" 
d="M449 1821v-811h-189v422l6 161l-6 2l-166 -96l-16 154l254 168h117z" />
    <glyph glyph-name="ordmasculine" unicode="&#xba;" horiz-adv-x="968" 
d="M313 1198q0 -174 38 -235t134 -61q97 0 135 60q38 62 37 236q0 174 -37 235q-38 60 -134 60q-96 -1 -135 -61q-38 -60 -38 -234zM486 1686q210 0 304 -114t95 -375q0 -261 -94 -374q-93 -113 -305 -113t-307 114t-95 374t96 374t306 114z" />
    <glyph glyph-name="guillemotright" unicode="&#xbb;" horiz-adv-x="1308" 
d="M131 229v207l356 226l-356 223v209l621 -422v-21zM614 229v207l357 226l-357 223v209l621 -422v-21z" />
    <glyph glyph-name="onequarter" unicode="&#xbc;" horiz-adv-x="1814" 
d="M1331 1536h189l-1026 -1536h-187zM1421 305l4 174l9 164h-7l-135 -201l-92 -131l2 -6h219zM1591 154v-154h-174v154h-416l-14 108l377 545h227v-502h90l-6 -151h-84zM594 1538v-809h-188v420l6 162l-6 2l-166 -96l-17 155l254 166h117z" />
    <glyph glyph-name="onehalf" unicode="&#xbd;" horiz-adv-x="1814" 
d="M596 1538v-809h-188v420l6 162l-6 2l-166 -96l-17 155l254 166h117zM1375 817q161 1 237 -65t76 -176t-83 -198t-266 -214v-6h349l-2 -158h-588v123q39 35 121 105t158 143q76 72 95 113q19 40 19 75q0 98 -139 98q-102 0 -219 -73l-46 149q127 84 288 84zM1305 1536h188
l-1026 -1536h-186z" />
    <glyph glyph-name="threequarters" unicode="&#xbe;" horiz-adv-x="1814" 
d="M396 1546q320 0 319 -230q0 -114 -123 -163v-4q141 -45 141 -178q0 -254 -338 -254q-158 0 -274 67l41 144q109 -59 233 -60q156 0 156 111q0 53 -50 79t-186 25v129q129 0 177 24q47 24 47 73q-1 84 -137 84t-238 -72l-43 139q117 86 275 86zM1323 1536h188l-1026 -1536
h-186zM1376 305l4 174l9 164h-7l-135 -201l-92 -131l2 -6h219zM1546 154v-154h-174v154h-416l-14 108l377 545h227v-502h90l-6 -151h-84z" />
    <glyph glyph-name="questiondown" unicode="&#xbf;" horiz-adv-x="1001" 
d="M696 1235q0 -141 -152 -141t-153 140q0 140 152 140q81 0 117 -33t36 -106zM72 172q0 309 358 500l12 248h205l15 -349q-164 -92 -243 -173t-79 -185q0 -174 225 -174q188 0 330 125l94 -213q-80 -72 -202 -115t-259 -43q-225 0 -341 99q-115 100 -115 280z" />
    <glyph glyph-name="Agrave" unicode="&#xc0;" horiz-adv-x="1480" 
d="M879 1630h-213l-254 244h315zM733 1329l-47 -160l-186 -600h467l-185 600l-43 160h-6zM1141 0l-101 330h-614l-102 -330h-301l546 1536h338l551 -1536h-317z" />
    <glyph glyph-name="Aacute" unicode="&#xc1;" horiz-adv-x="1480" 
d="M739 1870h340l-276 -242h-211zM733 1329l-47 -160l-186 -600h467l-185 600l-43 160h-6zM1141 0l-101 330h-614l-102 -330h-301l546 1536h338l551 -1536h-317z" />
    <glyph glyph-name="Acircumflex" unicode="&#xc2;" horiz-adv-x="1480" 
d="M596 1872h278l228 -246h-236l-129 152l-129 -152h-231zM733 1329l-47 -160l-186 -600h467l-185 600l-43 160h-6zM1141 0l-101 330h-614l-102 -330h-301l546 1536h338l551 -1536h-317z" />
    <glyph glyph-name="Atilde" unicode="&#xc3;" horiz-adv-x="1480" 
d="M597 1872q79 0 168 -51t120 -52q57 0 71 76l115 -2q-6 -105 -59 -169q-54 -64 -132 -64t-164 51t-114 51q-60 0 -74 -76h-120q6 104 58 170t131 66zM733 1329l-47 -160l-186 -600h467l-185 600l-43 160h-6zM1141 0l-101 330h-614l-102 -330h-301l546 1536h338l551 -1536
h-317z" />
    <glyph glyph-name="Adieresis" unicode="&#xc4;" horiz-adv-x="1480" 
d="M823 1743q0 113 115 113t115 -112t-115 -112q-59 0 -87 26t-28 85zM422 1743q0 113 116 113t115 -112q0 -112 -114 -112q-59 0 -88 26t-29 85zM733 1329l-47 -160l-186 -600h467l-185 600l-43 160h-6zM1141 0l-101 330h-614l-102 -330h-301l546 1536h338l551 -1536h-317z
" />
    <glyph glyph-name="Aring" unicode="&#xc5;" horiz-adv-x="1480" 
d="M736 1714q-102 0 -101 -74q0 -74 101 -74t102 72q0 76 -102 76zM733 1329l-47 -160l-186 -600h467l-185 600l-43 160h-6zM498 1647q0 188 238 188t237 -188q0 -94 -55 -142l540 -1505h-317l-101 330h-614l-102 -330h-301l532 1499q-57 46 -57 148z" />
    <glyph glyph-name="AE" unicode="&#xc6;" horiz-adv-x="2170" 
d="M1059 1350l-70 -152l-311 -629h440l-45 613l-8 166zM1950 909v-231h-557l34 -426h662l-6 -252h-922l-24 332h-576l-164 -332h-336l840 1536h1159l6 -256h-720l28 -371h576z" />
    <glyph glyph-name="Ccedilla" unicode="&#xc7;" horiz-adv-x="1230" 
d="M799 1563q199 0 356 -68l-31 -248q-143 55 -311 56q-227 0 -319 -115t-92 -418t94 -423t323 -120q162 0 309 66l33 -236q-133 -66 -303 -82l-65 -364h-238l125 364q-293 27 -434 225q-142 198 -142 586t169 582q169 195 526 195z" />
    <glyph glyph-name="Egrave" unicode="&#xc8;" horiz-adv-x="1271" 
d="M821 1630h-213l-254 244h316zM453 252h737l-6 -252h-1014v1536h983l4 -256h-704v-371h598v-231h-598v-426z" />
    <glyph glyph-name="Eacute" unicode="&#xc9;" horiz-adv-x="1271" 
d="M680 1870h340l-277 -242h-211zM453 252h737l-6 -252h-1014v1536h983l4 -256h-704v-371h598v-231h-598v-426z" />
    <glyph glyph-name="Ecircumflex" unicode="&#xca;" horiz-adv-x="1271" 
d="M537 1872h278l227 -246h-235l-129 152l-129 -152h-232zM453 252h737l-6 -252h-1014v1536h983l4 -256h-704v-371h598v-231h-598v-426z" />
    <glyph glyph-name="Edieresis" unicode="&#xcb;" horiz-adv-x="1271" 
d="M764 1743q0 113 114 113t115 -112q0 -112 -114 -112q-59 0 -87 26t-28 85zM362 1743q0 113 116 113t116 -112t-115 -112q-59 0 -88 26t-29 85zM453 252h737l-6 -252h-1014v1536h983l4 -256h-704v-371h598v-231h-598v-426z" />
    <glyph glyph-name="Igrave" unicode="&#xcc;" horiz-adv-x="675" 
d="M479 1630h-213l-254 244h316zM195 0v1536h286v-1536h-286z" />
    <glyph glyph-name="Iacute" unicode="&#xcd;" horiz-adv-x="675" 
d="M340 1870h340l-277 -242h-210zM195 0v1536h286v-1536h-286z" />
    <glyph glyph-name="Icircumflex" unicode="&#xce;" horiz-adv-x="675" 
d="M197 1872h278l227 -246h-235l-129 152l-129 -152h-232zM195 0v1536h286v-1536h-286z" />
    <glyph glyph-name="Idieresis" unicode="&#xcf;" horiz-adv-x="675" 
d="M424 1743q0 113 114 113t115 -112q0 -112 -114 -112q-59 0 -87 26t-28 85zM138 1856q116 0 116 -112t-115 -112q-59 0 -88 26t-28 85q-1 113 115 113zM195 0v1536h286v-1536h-286z" />
    <glyph glyph-name="Eth" unicode="&#xd0;" horiz-adv-x="1523" 
d="M739 258q211 0 297 106t86 404q0 299 -85 403t-298 105h-268v-389h191v-174h-191v-455h268zM741 1536q356 0 516 -180t160 -586t-164 -588t-508 -182h-557v713h-133v174h133v649h553z" />
    <glyph glyph-name="Ntilde" unicode="&#xd1;" horiz-adv-x="1540" 
d="M638 1872q79 0 168 -51t120 -52q57 0 71 76l115 -2q-6 -105 -59 -169t-131 -64t-164 51t-115 51q-60 0 -74 -76h-120q6 104 58 170t131 66zM1370 0h-199l-655 936l-92 139l-4 -2l2 -166v-907h-252v1536h246l704 -1034l4 2l-4 164v868h250v-1536z" />
    <glyph glyph-name="Ograve" unicode="&#xd2;" horiz-adv-x="1525" 
d="M936 1630h-213l-254 244h315zM1124 769q0 312 -78 422q-79 109 -283 109t-283 -110t-79 -422q0 -311 80 -424t283 -113t282 113q78 113 78 425zM1419 766q-1 -420 -153 -607t-501 -187t-505 190t-156 607t155 604t505 187t502 -186q152 -188 153 -608z" />
    <glyph glyph-name="Oacute" unicode="&#xd3;" horiz-adv-x="1525" 
d="M766 1870h340l-277 -242h-211zM1124 769q0 312 -78 422q-79 109 -283 109t-283 -110t-79 -422q0 -311 80 -424t283 -113t282 113q78 113 78 425zM1419 766q-1 -420 -153 -607t-501 -187t-505 190t-156 607t155 604t505 187t502 -186q152 -188 153 -608z" />
    <glyph glyph-name="Ocircumflex" unicode="&#xd4;" horiz-adv-x="1525" 
d="M623 1872h278l227 -246h-235l-129 152l-129 -152h-232zM1124 769q0 312 -78 422q-79 109 -283 109t-283 -110t-79 -422q0 -311 80 -424t283 -113t282 113q78 113 78 425zM1419 766q-1 -420 -153 -607t-501 -187t-505 190t-156 607t155 604t505 187t502 -186
q152 -188 153 -608z" />
    <glyph glyph-name="Otilde" unicode="&#xd5;" horiz-adv-x="1525" 
d="M624 1872q79 0 168 -51t119 -52q57 0 72 76l115 -2q-6 -105 -60 -169t-131 -64q-78 0 -164 51t-114 51q-60 0 -74 -76h-121q6 104 58 170t132 66zM1124 769q0 312 -78 422q-79 109 -283 109t-283 -110t-79 -422q0 -311 80 -424t283 -113t282 113q78 113 78 425zM1419 766
q-1 -420 -153 -607t-501 -187t-505 190t-156 607t155 604t505 187t502 -186q152 -188 153 -608z" />
    <glyph glyph-name="Odieresis" unicode="&#xd6;" horiz-adv-x="1525" 
d="M850 1743q0 113 114 113t115 -112q0 -112 -114 -112q-59 0 -87 26t-28 85zM564 1856q116 0 116 -112t-115 -112q-59 0 -88 26t-28 85q-1 113 115 113zM1124 769q0 312 -78 422q-79 109 -283 109t-283 -110t-79 -422q0 -311 80 -424t283 -113t282 113q78 113 78 425z
M1419 766q-1 -420 -153 -607t-501 -187t-505 190t-156 607t155 604t505 187t502 -186q152 -188 153 -608z" />
    <glyph glyph-name="multiply" unicode="&#xd7;" horiz-adv-x="1228" 
d="M1051 395l-150 -164l-287 281l-284 -281l-152 164l287 281l-291 285l152 165l290 -284l289 284l150 -165l-289 -285z" />
    <glyph glyph-name="Oslash" unicode="&#xd8;" horiz-adv-x="1525" 
d="M1124 768q0 150 -16 268l-4 2l-107 -129l-501 -583q78 -94 274 -94t276 112q78 113 78 424zM401 768q0 -184 23 -291h4l104 127l508 594q-78 102 -278 102t-281 -110q-80 -110 -80 -422zM1421 768q-1 -422 -153 -609t-504 -188q-287 0 -440 127l-105 -131l-135 127
l119 152q-98 184 -99 522q0 418 155 605t505 188q301 0 453 -138l116 140l135 -131l-135 -164q88 -184 88 -500z" />
    <glyph glyph-name="Ugrave" unicode="&#xd9;" horiz-adv-x="1497" 
d="M891 1630h-213l-254 244h315zM1352 1536v-985q0 -580 -603 -580t-604 580v985h281v-983q0 -166 79 -243t245 -77t242 77t77 243v983h283z" />
    <glyph glyph-name="Uacute" unicode="&#xda;" horiz-adv-x="1497" 
d="M750 1870h340l-277 -242h-211zM1352 1536v-985q0 -580 -603 -580t-604 580v985h281v-983q0 -166 79 -243t245 -77t242 77t77 243v983h283z" />
    <glyph glyph-name="Ucircumflex" unicode="&#xdb;" horiz-adv-x="1497" 
d="M608 1872h279l227 -246h-235l-129 152l-129 -152h-232zM1352 1536v-985q0 -580 -603 -580t-604 580v985h281v-983q0 -166 79 -243t245 -77t242 77t77 243v983h283z" />
    <glyph glyph-name="Udieresis" unicode="&#xdc;" horiz-adv-x="1497" 
d="M948 1856q114 0 115 -112q0 -112 -115 -112q-59 0 -87 26t-27 85q0 113 114 113zM432 1743q0 113 116 113t116 -112t-115 -112q-59 0 -88 26t-29 85zM1352 1536v-985q0 -580 -603 -580t-604 580v985h281v-983q0 -166 79 -243t245 -77t242 77t77 243v983h283z" />
    <glyph glyph-name="Yacute" unicode="&#xdd;" horiz-adv-x="1402" 
d="M709 1870h340l-277 -242h-211zM850 0h-289v504l-534 1032h319l363 -776h6l63 151l289 625h309l-526 -1032v-504z" />
    <glyph glyph-name="Thorn" unicode="&#xde;" horiz-adv-x="1349" 
d="M674 516q170 0 240 55t69 207q0 152 -70 209t-241 57h-219v-528h221zM674 1286q318 0 458 -122t140 -378t-140 -380t-458 -123h-221v-283h-283v1536h283v-250h221z" />
    <glyph glyph-name="germandbls" unicode="&#xdf;" horiz-adv-x="1325" 
d="M158 0v1014q0 270 128 409t376 140q180 1 294 -93t115 -233q0 -63 -35 -123t-78 -98q-112 -96 -112 -137q0 -25 42 -54t101 -63t119 -78q60 -45 103 -121q42 -76 42 -168q0 -188 -130 -301q-130 -112 -333 -112t-311 71l17 228q94 -63 224 -63q269 -1 267 171
q0 59 -43 111t-105 88q-63 37 -125 74q-150 89 -149 180q0 91 127 199t127 188q0 49 -44 81t-120 31q-238 0 -237 -303v-1038h-260z" />
    <glyph glyph-name="agrave" unicode="&#xe0;" horiz-adv-x="1181" 
d="M719 1348h-201l-233 297h303zM793 362v181q-74 35 -209 35q-244 0 -244 -194t207 -194q96 0 171 52t75 120zM793 815q-1 115 -61 165t-220 50t-319 -69l-23 215q182 80 424 80t350 -114t107 -366v-776h-199l-23 131l-6 2q-121 -154 -348 -153q-178 0 -279 100
q-102 100 -102 288t116 291q116 102 327 103q135 0 256 -39v92z" />
    <glyph glyph-name="aacute" unicode="&#xe1;" horiz-adv-x="1181" 
d="M571 1645h303l-239 -297h-199zM793 362v181q-74 35 -209 35q-244 0 -244 -194t207 -194q96 0 171 52t75 120zM793 815q-1 115 -61 165t-220 50t-319 -69l-23 215q182 80 424 80t350 -114t107 -366v-776h-199l-23 131l-6 2q-121 -154 -348 -153q-178 0 -279 100
q-102 100 -102 288t116 291q116 102 327 103q135 0 256 -39v92z" />
    <glyph glyph-name="acircumflex" unicode="&#xe2;" horiz-adv-x="1181" 
d="M469 1645h229l209 -297h-198l-123 188l-125 -188h-197zM793 362v181q-74 35 -209 35q-244 0 -244 -194t207 -194q96 0 171 52t75 120zM793 815q-1 115 -61 165t-220 50t-319 -69l-23 215q182 80 424 80t350 -114t107 -366v-776h-199l-23 131l-6 2q-121 -154 -348 -153
q-178 0 -279 100q-102 100 -102 288t116 291q116 102 327 103q135 0 256 -39v92z" />
    <glyph glyph-name="atilde" unicode="&#xe3;" horiz-adv-x="1181" 
d="M725 1522q55 0 78 98l121 -2q-6 -118 -60 -188t-131 -70t-157 59t-117 60q-58 -1 -78 -99l-123 2q8 117 60 189q52 71 130 71t160 -60q80 -60 117 -60zM793 362v181q-74 35 -209 35q-244 0 -244 -194t207 -194q96 0 171 52t75 120zM793 815q-1 115 -61 165t-220 50
t-319 -69l-23 215q182 80 424 80t350 -114t107 -366v-776h-199l-23 131l-6 2q-121 -154 -348 -153q-178 0 -279 100q-102 100 -102 288t116 291q116 102 327 103q135 0 256 -39v92z" />
    <glyph glyph-name="adieresis" unicode="&#xe4;" horiz-adv-x="1181" 
d="M887 1523q0 -118 -115 -118q-59 0 -88 27t-29 90q0 119 117 118q115 1 115 -117zM535 1523q0 -118 -117 -118q-59 0 -87 27t-28 90q0 119 115 118q117 1 117 -117zM793 362v181q-74 35 -209 35q-244 0 -244 -194t207 -194q96 0 171 52t75 120zM793 815q-1 115 -61 165
t-220 50t-319 -69l-23 215q182 80 424 80t350 -114t107 -366v-776h-199l-23 131l-6 2q-121 -154 -348 -153q-178 0 -279 100q-102 100 -102 288t116 291q116 102 327 103q135 0 256 -39v92z" />
    <glyph glyph-name="aring" unicode="&#xe5;" horiz-adv-x="1181" 
d="M483 1522q-1 -72 107 -72t108 72t-108 72t-107 -72zM354 1522q0 176 234 176q117 0 176 -47t59 -129q-1 -176 -235 -176t-234 176zM793 362v181q-74 35 -209 35q-244 0 -244 -194t207 -194q96 0 171 52t75 120zM793 815q-1 115 -61 165t-220 50t-319 -69l-23 215
q182 80 424 80t350 -114t107 -366v-776h-199l-23 131l-6 2q-121 -154 -348 -153q-178 0 -279 100q-102 100 -102 288t116 291q116 102 327 103q135 0 256 -39v92z" />
    <glyph glyph-name="ae" unicode="&#xe6;" horiz-adv-x="1875" 
d="M1298 1032q-132 0 -194 -70t-70 -229h520q-6 299 -256 299zM793 387v154q-74 35 -209 34q-246 1 -246 -193t209 -194q104 0 175 56t71 143zM582 1253q270 0 364 -149q132 150 360 150t357 -144q129 -143 129 -428q0 -70 -6 -125h-748q8 -190 94 -269t260 -79
q175 0 334 72l29 -220q-168 -84 -393 -84q-330 0 -461 197q-129 -197 -401 -197q-195 1 -300 101q-106 100 -106 288t115 290q115 101 328 102q135 0 256 -39v94q-1 115 -61 165t-220 50t-319 -70l-23 216q193 79 412 79z" />
    <glyph glyph-name="ccedilla" unicode="&#xe7;" horiz-adv-x="1015" 
d="M354 616q0 -414 314 -413q150 0 256 57l18 -209q-90 -61 -242 -74l-65 -366h-238l125 369q-438 55 -438 638q0 314 133 474t416 159q164 0 299 -55l-17 -229q-111 47 -227 47q-184 0 -259 -90t-75 -308z" />
    <glyph glyph-name="egrave" unicode="&#xe8;" horiz-adv-x="1191" 
d="M745 1348h-200l-234 297h303zM614 1032q-132 0 -194 -70t-72 -229h522q-6 299 -256 299zM680 -23q-309 0 -453 163q-143 164 -143 480q0 636 528 633q236 0 367 -142t131 -429q0 -70 -6 -125h-750q8 -190 92 -269t262 -79t334 67l31 -215q-172 -84 -393 -84z" />
    <glyph glyph-name="eacute" unicode="&#xe9;" horiz-adv-x="1191" 
d="M598 1645h303l-239 -297h-199zM614 1032q-132 0 -194 -70t-72 -229h522q-6 299 -256 299zM680 -23q-309 0 -453 163q-143 164 -143 480q0 636 528 633q236 0 367 -142t131 -429q0 -70 -6 -125h-750q8 -190 92 -269t262 -79t334 67l31 -215q-172 -84 -393 -84z" />
    <glyph glyph-name="ecircumflex" unicode="&#xea;" horiz-adv-x="1191" 
d="M496 1645h229l209 -297h-199l-123 188l-125 -188h-196zM614 1032q-132 0 -194 -70t-72 -229h522q-6 299 -256 299zM680 -23q-309 0 -453 163q-143 164 -143 480q0 636 528 633q236 0 367 -142t131 -429q0 -70 -6 -125h-750q8 -190 92 -269t262 -79t334 67l31 -215
q-172 -84 -393 -84z" />
    <glyph glyph-name="edieresis" unicode="&#xeb;" horiz-adv-x="1191" 
d="M889 1523q0 -118 -115 -118q-59 0 -88 27t-29 90q0 119 117 118q115 1 115 -117zM537 1523q0 -118 -117 -118q-59 0 -87 27t-28 90q0 119 115 118q117 1 117 -117zM614 1032q-132 0 -194 -70t-72 -229h522q-6 299 -256 299zM680 -23q-309 0 -453 163q-143 164 -143 480
q0 636 528 633q236 0 367 -142t131 -429q0 -70 -6 -125h-750q8 -190 92 -269t262 -79t334 67l31 -215q-172 -84 -393 -84z" />
    <glyph glyph-name="igrave" unicode="&#xec;" horiz-adv-x="647" 
d="M459 1348h-201l-233 297h303zM455 0h-265v1225l265 14v-1239z" />
    <glyph glyph-name="iacute" unicode="&#xed;" horiz-adv-x="647" 
d="M311 1645h303l-239 -297h-199zM455 0h-265v1225l265 14v-1239z" />
    <glyph glyph-name="icircumflex" unicode="&#xee;" horiz-adv-x="647" 
d="M209 1645h229l209 -297h-198l-123 188l-125 -188h-197zM455 0h-265v1225l265 14v-1239z" />
    <glyph glyph-name="idieresis" unicode="&#xef;" horiz-adv-x="647" 
d="M625 1523q0 -118 -115 -118q-59 0 -88 27t-29 90q0 119 117 118q115 1 115 -117zM272 1523q0 -118 -116 -118q-59 0 -87 27t-28 90q0 119 115 118q116 1 116 -117zM455 0h-265v1225l265 14v-1239z" />
    <glyph glyph-name="eth" unicode="&#xf0;" horiz-adv-x="1271" 
d="M354 558q0 -200 67 -280t211 -79q144 0 214 101t69 327q1 151 -69 219t-218 68t-210 -78q-64 -78 -64 -278zM642 -23q-276 1 -416 137q-142 136 -142 468q0 555 485 555q168 0 277 -68l4 4q-76 125 -201 238l-180 -119l-94 102l160 109q-82 57 -185 113l178 124
q80 -39 185 -116l170 114l90 -114l-150 -99q164 -157 263 -351t100 -390q0 -373 -134 -540t-410 -167z" />
    <glyph glyph-name="ntilde" unicode="&#xf1;" horiz-adv-x="1280" 
d="M791 1522q55 0 77 98l121 -2q-6 -118 -60 -188t-130 -70t-157 59t-118 60q-58 -1 -78 -99l-122 2q8 117 60 189q52 71 130 71t159 -60t118 -60zM1149 0h-260v797q0 221 -236 221q-73 0 -141 -31t-104 -82v-905h-261v1227l187 14l41 -119q143 133 346 133q203 1 315 -117
t113 -339v-799z" />
    <glyph glyph-name="ograve" unicode="&#xf2;" horiz-adv-x="1269" 
d="M770 1348h-201l-233 297h303zM354 612q0 -240 64 -330t218 -92q155 0 217 92t62 330q0 240 -62 331t-217 91q-154 0 -218 -91t-64 -331zM1184 611q0 -341 -129 -491t-418 -149q-289 0 -421 151q-132 152 -132 490t133 491t421 153t417 -152t129 -493z" />
    <glyph glyph-name="oacute" unicode="&#xf3;" horiz-adv-x="1269" 
d="M623 1645h303l-240 -297h-199zM354 612q0 -240 64 -330t218 -92q155 0 217 92t62 330q0 240 -62 331t-217 91q-154 0 -218 -91t-64 -331zM1184 611q0 -341 -129 -491t-418 -149q-289 0 -421 151q-132 152 -132 490t133 491t421 153t417 -152t129 -493z" />
    <glyph glyph-name="ocircumflex" unicode="&#xf4;" horiz-adv-x="1269" 
d="M520 1645h230l208 -297h-198l-123 188l-125 -188h-197zM354 612q0 -240 64 -330t218 -92q155 0 217 92t62 330q0 240 -62 331t-217 91q-154 0 -218 -91t-64 -331zM1184 611q0 -341 -129 -491t-418 -149q-289 0 -421 151q-132 152 -132 490t133 491t421 153t417 -152
t129 -493z" />
    <glyph glyph-name="otilde" unicode="&#xf5;" horiz-adv-x="1269" 
d="M776 1522q55 0 78 98l121 -2q-7 -118 -61 -188t-130 -70t-156 59t-118 60q-58 -1 -78 -99l-123 2q9 117 61 189q52 71 130 71t158 -60t118 -60zM354 612q0 -240 64 -330t218 -92q155 0 217 92t62 330q0 240 -62 331t-217 91q-154 0 -218 -91t-64 -331zM1184 611
q0 -341 -129 -491t-418 -149q-289 0 -421 151q-132 152 -132 490t133 491t421 153t417 -152t129 -493z" />
    <glyph glyph-name="odieresis" unicode="&#xf6;" horiz-adv-x="1269" 
d="M928 1523q0 -118 -115 -118q-59 0 -88 27t-29 90q0 119 117 118q115 1 115 -117zM575 1523q0 -118 -116 -118q-59 0 -87 27t-28 90q0 119 115 118q116 1 116 -117zM354 612q0 -240 64 -330t218 -92q155 0 217 92t62 330q0 240 -62 331t-217 91q-154 0 -218 -91t-64 -331z
M1184 611q0 -341 -129 -491t-418 -149q-289 0 -421 151q-132 152 -132 490t133 491t421 153t417 -152t129 -493z" />
    <glyph glyph-name="divide" unicode="&#xf7;" horiz-adv-x="1228" 
d="M1104 567h-979v246h979v-246zM446 322q0 137 167 137t167 -136t-166 -137q-86 0 -127 30t-41 106zM780 1059q0 -137 -166 -137q-86 0 -127 30t-41 107q0 137 167 137t167 -137z" />
    <glyph glyph-name="oslash" unicode="&#xf8;" horiz-adv-x="1269" 
d="M352 612q0 -96 10 -182l5 -2l108 123l367 405q-63 78 -213 78q-149 0 -213 -91t-64 -331zM913 612q0 113 -14 217l-4 2l-485 -540q61 -101 221 -101t221 91t61 331zM84 612q0 338 132 491t419 152q223 0 350 -90l76 97l110 -105l-81 -104q94 -153 94 -467t-130 -464
t-419 -151q-244 0 -375 105l-80 -96l-108 104l90 115q-78 147 -78 413z" />
    <glyph glyph-name="ugrave" unicode="&#xf9;" horiz-adv-x="1263" 
d="M770 1348h-201l-233 297h303zM1133 1233v-811q0 -444 -502 -445q-250 0 -375 115t-125 330v811h260v-805q0 -215 241 -215t240 215v805h261z" />
    <glyph glyph-name="uacute" unicode="&#xfa;" horiz-adv-x="1263" 
d="M621 1645h303l-240 -297h-199zM1133 1233v-811q0 -444 -502 -445q-250 0 -375 115t-125 330v811h260v-805q0 -215 241 -215t240 215v805h261z" />
    <glyph glyph-name="ucircumflex" unicode="&#xfb;" horiz-adv-x="1263" 
d="M518 1645h230l208 -297h-198l-123 188l-125 -188h-197zM1133 1233v-811q0 -444 -502 -445q-250 0 -375 115t-125 330v811h260v-805q0 -215 241 -215t240 215v805h261z" />
    <glyph glyph-name="udieresis" unicode="&#xfc;" horiz-adv-x="1263" 
d="M924 1523q0 -118 -115 -118q-59 0 -88 27t-29 90q0 119 117 118q115 1 115 -117zM571 1523q0 -118 -116 -118q-59 0 -87 27t-28 90q0 119 115 118q116 1 116 -117zM1133 1233v-811q0 -444 -502 -445q-250 0 -375 115t-125 330v811h260v-805q0 -215 241 -215t240 215v805
h261z" />
    <glyph glyph-name="yacute" unicode="&#xfd;" horiz-adv-x="1323" 
d="M651 1645h303l-239 -297h-199zM377 -137q139 0 201 135l6 18l-535 1217h299l361 -975h6l41 160l239 815h279l-436 -1237q-66 -178 -166 -255t-232 -77t-219 39l23 191q61 -31 133 -31z" />
    <glyph glyph-name="thorn" unicode="&#xfe;" horiz-adv-x="1296" 
d="M666 201q136 0 204 90q68 89 68 323t-61 319t-216 85t-239 -121v-571q78 -125 244 -125zM1210 627q0 -333 -124 -491t-337 -159q-213 0 -325 111l-6 -2l4 -166v-229h-264v1913l262 14v-328l-4 -164l6 -4q135 131 347 131t327 -146q114 -147 114 -480z" />
    <glyph glyph-name="ydieresis" unicode="&#xff;" horiz-adv-x="1323" 
d="M956 1523q0 -118 -114 -118q-59 0 -88 27t-29 90q0 119 117 118q114 1 114 -117zM604 1523q0 -118 -117 -118q-59 0 -87 27t-27 90q0 119 114 118q117 1 117 -117zM377 -137q139 0 201 135l6 18l-535 1217h299l361 -975h6l41 160l239 815h279l-436 -1237
q-66 -178 -166 -255t-232 -77t-219 39l23 191q61 -31 133 -31z" />
    <glyph glyph-name="dotlessi" unicode="&#x131;" horiz-adv-x="647" 
d="M455 0h-265v1225l265 14v-1239z" />
    <glyph glyph-name="IJ" unicode="&#x132;" horiz-adv-x="1771" 
d="M1602 1536v-993q0 -571 -580 -572q-180 0 -307 74l18 246q94 -66 248 -66q332 0 332 324v987h289zM197 0v1536h286v-1536h-286z" />
    <glyph glyph-name="ij" unicode="&#x133;" horiz-adv-x="1245" 
d="M946 1643q154 0 154 -122t-154 -122q-82 -1 -119 27t-36 94q1 123 155 123zM1079 -2q0 -330 -325 -330q-84 0 -158 27l14 188q41 -12 80 -12q129 0 129 135v1219l260 14v-1241zM170 1518q0 125 156 125t155 -123q0 -123 -155 -123q-80 -1 -118 27t-38 94zM457 0h-264
v1225l264 14v-1239z" />
    <glyph glyph-name="Lslash" unicode="&#x141;" horiz-adv-x="1230" 
d="M518 260h670l-6 -260h-949v586l-149 -66l-21 230l170 75v711h285v-598l400 178l24 -239l-424 -181v-436z" />
    <glyph glyph-name="lslash" unicode="&#x142;" horiz-adv-x="749" 
d="M500 0h-262v772l-164 -86l-2 229l166 84v605l262 14v-508l180 94l2 -223l-182 -96v-885z" />
    <glyph glyph-name="OE" unicode="&#x152;" horiz-adv-x="2215" 
d="M763 231q201 0 279 113t78 425t-77 423t-279 111t-283 -112q-80 -112 -80 -423t80 -424t282 -113zM1143 0v147l-6 3q-131 -178 -434 -178t-451 192q-148 194 -148 606t146 601t450 189t439 -159h4v135h954l6 -256h-706v-371h598v-231h-598v-426h739l-6 -252h-987z" />
    <glyph glyph-name="oe" unicode="&#x153;" horiz-adv-x="2029" 
d="M1452 1032q-133 0 -195 -70q-61 -71 -69 -229h520q-6 299 -256 299zM365 612q0 -240 63 -330t218 -92q155 0 216 92q62 92 62 330q0 240 -62 331t-216 91q-155 0 -218 -91t-63 -331zM1526 -23q-336 0 -461 201q-113 -207 -438 -207q-274 0 -404 152q-129 153 -129 489
t130 490t403 153q315 0 432 -188q121 186 399 186q230 0 360 -142t130 -429q0 -51 -9 -125h-745q8 -190 92 -269t259 -79t335 72l31 -220q-172 -84 -385 -84z" />
    <glyph glyph-name="Scaron" unicode="&#x160;" horiz-adv-x="1173" 
d="M774 1626h-278l-222 246h234l129 -160l129 160h231zM1104 451q0 -223 -144 -351t-405 -129q-260 0 -463 115l39 252q201 -115 422 -115q279 0 278 209q0 78 -75 130q-76 52 -182 87t-215 81q-107 46 -183 141t-76 239q0 201 134 327t384 126t435 -82l-37 -244
q-193 70 -369 70q-274 0 -274 -183q0 -76 76 -126t182 -84t214 -80q107 -46 183 -142t76 -241z" />
    <glyph glyph-name="scaron" unicode="&#x161;" horiz-adv-x="1013" 
d="M643 1348h-229l-205 297h197l122 -193l123 193h201zM938 375q0 -187 -112 -293t-342 -106t-384 92l31 221q145 -96 352 -96q106 0 160 43q53 43 53 110q0 68 -61 108t-151 66t-177 62q-88 36 -149 112t-62 195q0 166 116 265t318 99t359 -69l-23 -217q-152 63 -323 63
q-93 0 -145 -35t-52 -95t62 -96t148 -62q87 -26 173 -60q85 -34 147 -110q62 -78 62 -197z" />
    <glyph glyph-name="Ydieresis" unicode="&#x178;" horiz-adv-x="1402" 
d="M908 1856q114 0 114 -112t-115 -112q-59 0 -87 26t-27 85q1 113 115 113zM391 1743q0 113 116 113t116 -112t-115 -112q-59 0 -88 26t-29 85zM850 0h-289v504l-534 1032h319l363 -776h6l63 151l289 625h309l-526 -1032v-504z" />
    <glyph glyph-name="Zcaron" unicode="&#x17d;" horiz-adv-x="1263" 
d="M782 1626h-278l-221 246h233l129 -160l129 160h232zM84 0v188l647 951l94 131l-2 4h-721l11 262h1054v-213l-632 -928l-95 -129l2 -6h729l-4 -260h-1083z" />
    <glyph glyph-name="zcaron" unicode="&#x17e;" horiz-adv-x="1105" 
d="M678 1348h-229l-205 297h196l123 -193l123 193h201zM102 0v186l496 691l98 129l-2 4h-573l10 223h866v-186l-493 -693l-98 -127l2 -6h604l-8 -221h-902z" />
    <glyph glyph-name="florin" unicode="&#x192;" horiz-adv-x="858" 
d="M731 1614q96 0 180 -27l-53 -174q-53 16 -110 17q-145 0 -170 -115l-17 -84h268l-41 -203h-270l-291 -1337h-258l289 1337h-129l43 203h127l18 88q29 133 135 214t279 81z" />
    <glyph glyph-name="circumflex" unicode="&#x2c6;" 
d="M297 1645h229l209 -297h-198l-123 188l-125 -188h-197z" />
    <glyph glyph-name="caron" unicode="&#x2c7;" 
d="M528 1348h-229l-205 297h197l123 -193l123 193h200z" />
    <glyph glyph-name="breve" unicode="&#x2d8;" 
d="M541 1645h180q0 -313 -309 -314q-309 0 -310 314h179q0 -172 130 -172t130 172z" />
    <glyph glyph-name="dotaccent" unicode="&#x2d9;" 
d="M256 1520q0 123 156 123t155 -122q0 -122 -155 -122q-80 -1 -118 27t-38 94z" />
    <glyph glyph-name="ring" unicode="&#x2da;" 
d="M309 1522q-1 -72 107 -72t108 72t-108 72t-107 -72zM180 1522q0 176 234 176q117 0 176 -47t59 -129q-1 -176 -235 -176t-234 176z" />
    <glyph glyph-name="ogonek" unicode="&#x2db;" 
d="M524 -381q-117 0 -175 50t-58 130q0 174 211 240l104 -39q-119 -39 -119 -135q0 -80 111 -82q63 0 111 27l20 -142q-88 -49 -205 -49z" />
    <glyph glyph-name="tilde" unicode="&#x2dc;" 
d="M559 1522q55 0 78 98l121 -2q-6 -118 -60 -188t-131 -70t-157 59t-117 60q-58 -1 -78 -99l-123 2q8 117 60 189q52 71 131 71t159 -60t117 -60z" />
    <glyph glyph-name="hungarumlaut" unicode="&#x2dd;" 
d="M653 1645h275l-242 -297h-192zM287 1645h270l-221 -297h-170z" />
    <glyph glyph-name="Delta" unicode="&#x394;" horiz-adv-x="1531" 
d="M762 1212l-55 -157l-310 -822h725l-301 822l-53 157h-6zM860 1542l598 -1542h-1386l598 1542h190z" />
    <glyph glyph-name="Omega" unicode="&#x3a9;" horiz-adv-x="1523" 
d="M762 1559q645 0 645 -664q0 -420 -336 -657v-7h346v-231h-586v334q281 219 281 549q0 223 -84 321t-266 98t-266 -98t-84 -321q0 -328 280 -549v-334h-586v231h347l2 7q-338 231 -338 657q0 332 167 498t478 166z" />
    <glyph glyph-name="mu" unicode="&#x3bc;" horiz-adv-x="1280" 
d="M652 -20q-186 0 -275 151l-4 -2q14 -283 28 -432l-254 -21v1557h263l-2 -803q0 -100 68 -158q69 -57 176 -57t171 50q63 50 64 143v825h260v-1227l-184 -16l-35 100h-6q-84 -110 -270 -110z" />
    <glyph glyph-name="pi" unicode="&#x3c0;" horiz-adv-x="1388" 
d="M872 328v676h-350v-1004h-260v999q-115 -6 -164 -41l-63 207q94 68 327 68h941v-229h-173v-676q0 -78 29 -108t105 -30v-200q-229 0 -311 73q-81 75 -81 265z" />
    <glyph glyph-name="endash" unicode="&#x2013;" horiz-adv-x="1073" 
d="M123 797h825v-195h-825v195z" />
    <glyph glyph-name="emdash" unicode="&#x2014;" horiz-adv-x="1437" 
d="M123 797h1192v-195h-1192v195z" />
    <glyph glyph-name="quoteleft" unicode="&#x2018;" horiz-adv-x="499" 
d="M403 1270q1 -160 -153 -160t-154 157q0 75 52 201t116 215l94 -22l-53 -250q41 -16 70 -55t28 -86z" />
    <glyph glyph-name="quoteright" unicode="&#x2019;" horiz-adv-x="499" 
d="M248 1606q158 0 156 -157q0 -75 -53 -201q-52 -126 -115 -216l-95 23l54 250q-41 16 -70 55t-29 86q0 160 152 160z" />
    <glyph glyph-name="quotesinglbase" unicode="&#x201a;" horiz-adv-x="499" 
d="M248 281q158 0 156 -157q0 -75 -53 -201q-52 -126 -115 -216l-95 23l54 250q-41 16 -70 55t-29 86q0 160 152 160z" />
    <glyph glyph-name="quotedblleft" unicode="&#x201c;" horiz-adv-x="913" 
d="M403 1270q1 -160 -153 -160t-154 157q0 75 52 201t116 215l94 -22l-53 -250q41 -16 70 -55t28 -86zM817 1270q1 -160 -153 -160t-154 157q0 75 52 201t116 215l94 -22l-53 -250q41 -16 69 -55t29 -86z" />
    <glyph glyph-name="quotedblright" unicode="&#x201d;" horiz-adv-x="913" 
d="M510 1446q0 160 154 160t153 -157q0 -75 -52 -201t-116 -216l-94 23l53 250q-42 16 -70 55t-28 86zM248 1606q158 0 156 -157q0 -75 -53 -201q-52 -126 -115 -216l-95 23l54 250q-41 16 -70 55t-29 86q0 160 152 160z" />
    <glyph glyph-name="quotedblbase" unicode="&#x201e;" horiz-adv-x="913" 
d="M510 121q0 160 154 160t153 -157q0 -75 -52 -201t-116 -216l-94 23l53 250q-42 16 -70 55t-28 86zM248 281q158 0 156 -157q0 -75 -53 -201q-52 -126 -115 -216l-95 23l54 250q-41 16 -70 55t-29 86q0 160 152 160z" />
    <glyph glyph-name="dagger" unicode="&#x2020;" horiz-adv-x="1015" 
d="M74 1247l323 -18l-22 387h258l-19 -387l326 18v-250l-326 17l19 -1313h-258l22 1313l-323 -17v250z" />
    <glyph glyph-name="daggerdbl" unicode="&#x2021;" horiz-adv-x="1015" 
d="M940 330v-248l-326 18l19 -399h-258l22 399l-323 -18v248l325 -17l-2 703l-323 -19v250l323 -18l-22 387h258l-19 -387l326 18v-250l-326 19v-703z" />
    <glyph glyph-name="bullet" unicode="&#x2022;" horiz-adv-x="839" 
d="M717 658q0 -308 -301 -308t-301 308t299 309q303 -1 303 -309z" />
    <glyph glyph-name="ellipsis" unicode="&#x2026;" horiz-adv-x="1433" 
d="M268 287q158 0 158 -155t-158 -155q-84 0 -121 36t-36 118q-1 156 157 156zM725 287q158 0 158 -155t-158 -155q-84 0 -121 36t-37 118q0 156 158 156zM1166 287q158 0 157 -155q0 -155 -158 -155q-84 0 -121 36t-36 118q0 156 158 156z" />
    <glyph glyph-name="perthousand" unicode="&#x2030;" horiz-adv-x="2154" 
d="M1768 526q-72 0 -102 -40t-30 -147t32 -147t102 -40t102 38q31 38 31 146t-32 149t-103 41zM2077 338q0 -358 -310 -358q-157 0 -231 88t-74 273t73 272t231 87t235 -86q76 -86 76 -276zM1233 338q0 108 -31 148q-32 40 -102 40t-101 -40t-31 -147t31 -148
q31 -39 102 -39t101 38t31 148zM1407 338q0 -358 -307 -358q-158 0 -233 88t-75 273t73 272t232 87t235 -86t75 -276zM1063 1481l154 -121l-818 -1315l-153 119zM518 1202q0 109 -31 150t-101 41t-102 -41q-30 -41 -30 -150q0 -110 31 -150t101 -40t102 40q30 40 30 150z
M692 1200q0 -358 -307 -358q-157 0 -231 88t-74 273t73 269t231 84t234 -83q74 -83 74 -273z" />
    <glyph glyph-name="guilsinglleft" unicode="&#x2039;" horiz-adv-x="817" 
d="M696 885l-358 -223l358 -226v-207l-618 422v21l618 422v-209z" />
    <glyph glyph-name="guilsinglright" unicode="&#x203a;" horiz-adv-x="817" 
d="M121 229v207l356 226l-356 223v209l620 -422v-21z" />
    <glyph glyph-name="fraction" unicode="&#x2044;" horiz-adv-x="610" 
d="M762 1536h188l-1026 -1536h-186z" />
    <glyph glyph-name="uni2070" unicode="&#x2070;" horiz-adv-x="770" 
d="M530 1413q0 152 -33 206q-34 54 -112 54t-111 -53q-32 -53 -32 -207t32 -207t111 -53q78 0 112 54q33 54 33 206zM55 1414q0 218 78 316t253 99q175 -1 253 -99t78 -316t-79 -316t-252 -98t-252 98t-79 316z" />
    <glyph glyph-name="uni2074" unicode="&#x2074;" horiz-adv-x="770" 
d="M481 1315l4 172l9 164h-7l-133 -201l-94 -129l2 -6h219zM651 1163v-153h-174v153h-416l-14 109l377 545h227v-502h90l-6 -152h-84z" />
    <glyph glyph-name="uni2075" unicode="&#x2075;" horiz-adv-x="770" 
d="M702 1288q0 -289 -323 -289q-160 0 -277 60l31 145q117 -53 215 -53t134 30t36 93q0 102 -149 102q-104 0 -185 -26l-73 63l39 404h507l5 -160h-365l-12 -144q82 12 129 13q288 0 288 -238z" />
    <glyph glyph-name="uni2076" unicode="&#x2076;" horiz-adv-x="770" 
d="M526 1292q0 104 -129 105q-96 0 -141 -51q2 -106 34 -150t109 -43q127 0 127 139zM713 1290q0 -143 -81 -217t-235 -74q-336 0 -336 396q-1 211 99 323t291 111q121 0 213 -35l-13 -149q-86 27 -183 27q-96 0 -150 -44q-54 -43 -70 -135l4 -4q78 45 178 45
q283 0 283 -244z" />
    <glyph glyph-name="uni2077" unicode="&#x2077;" horiz-adv-x="770" 
d="M709 1817v-160l-334 -647h-219l352 635h-447l11 172h637z" />
    <glyph glyph-name="uni2078" unicode="&#x2078;" horiz-adv-x="770" 
d="M266 1602q0 -31 28 -54q28 -24 56 -32t88 -25q74 41 74 102q0 95 -123 95t-123 -86zM528 1235q0 47 -49 75t-151 54q-88 -47 -88 -119q0 -53 34 -78t117 -24q137 0 137 92zM55 1247q0 119 123 185q-88 61 -88 178q0 219 296 219t296 -219q0 -102 -92 -170
q125 -63 125 -193q0 -248 -330 -248t-330 248z" />
    <glyph glyph-name="uni2079" unicode="&#x2079;" horiz-adv-x="770" 
d="M369 1677q-129 0 -129 -110q0 -115 137 -115q100 0 141 51q0 96 -36 135t-113 39zM705 1446q-1 -229 -93 -338t-278 -109q-113 0 -223 39l26 150q87 -35 187 -35t152 51t61 164l-5 2q-68 -55 -198 -55q-130 -1 -202 65t-71 185q0 119 78 191t232 73q334 0 334 -383z" />
    <glyph glyph-name="uni207A" unicode="&#x207a;" horiz-adv-x="774" 
d="M686 1337h-225v-221h-152v221h-223v164h223v223h152v-223h225v-164z" />
    <glyph glyph-name="uni207B" unicode="&#x207b;" horiz-adv-x="774" 
d="M674 1350h-580v155h580v-155z" />
    <glyph glyph-name="uni207C" unicode="&#x207c;" horiz-adv-x="774" 
d="M674 1225h-572v139h572v-139zM674 1483h-572v137h572v-137z" />
    <glyph glyph-name="uni207D" unicode="&#x207d;" horiz-adv-x="440" 
d="M287 1382q0 -279 141 -485l-125 -12q-186 187 -186 497t186 498l125 -12q-141 -207 -141 -486z" />
    <glyph glyph-name="uni207E" unicode="&#x207e;" horiz-adv-x="440" 
d="M153 1386q0 276 -141 482l127 12q185 -186 185 -496t-185 -499l-127 12q141 213 141 489z" />
    <glyph glyph-name="uni2080" unicode="&#x2080;" horiz-adv-x="770" 
d="M530 94q0 152 -33 206q-34 54 -112 54t-111 -53q-32 -53 -32 -207t32 -207t111 -53q78 0 112 54q33 54 33 206zM55 95q0 219 78 317t253 98t253 -98t78 -317q0 -218 -79 -316t-252 -98t-252 98t-79 316z" />
    <glyph glyph-name="uni2081" unicode="&#x2081;" horiz-adv-x="571" 
d="M449 502v-811h-189v422l6 161l-6 2l-166 -96l-16 154l254 168h117z" />
    <glyph glyph-name="uni2082" unicode="&#x2082;" horiz-adv-x="745" 
d="M364 508q160 0 236 -66t76 -175q0 -111 -82 -197t-266 -215v-7h348l-2 -157h-588v123q39 36 121 106q222 191 256 260q16 35 16 70q0 98 -139 98q-102 0 -219 -74l-45 150q127 84 288 84z" />
    <glyph glyph-name="uni2083" unicode="&#x2083;" horiz-adv-x="745" 
d="M345 508q319 0 319 -230q0 -114 -123 -163v-4q141 -46 141 -179q0 -252 -338 -251q-158 0 -274 67l41 143q106 -61 233 -61q156 0 156 113q0 53 -49 77t-187 25v129q127 0 175 25t48 73q0 82 -136 82t-238 -69l-43 139q119 84 275 84z" />
    <glyph glyph-name="uni2084" unicode="&#x2084;" horiz-adv-x="770" 
d="M481 -4l4 174l9 164h-7l-135 -201l-92 -131l2 -6h219zM651 -156v-153h-174v153h-416l-14 109l377 545h227v-502h90l-6 -152h-84z" />
    <glyph glyph-name="uni2085" unicode="&#x2085;" horiz-adv-x="770" 
d="M702 -31q0 -289 -323 -288q-160 0 -277 59l31 145q117 -53 215 -53t134 30t36 93q0 102 -149 102q-104 0 -185 -26l-73 63l39 404h507l5 -160h-365l-12 -143q82 12 129 12q140 -1 214 -61t74 -177z" />
    <glyph glyph-name="uni2086" unicode="&#x2086;" horiz-adv-x="770" 
d="M526 -29q0 106 -129 107q-98 0 -141 -53q2 -103 34 -147t109 -44q127 0 127 137zM713 -29q0 -143 -81 -217t-235 -73q-336 0 -336 395q-1 210 99 322t291 112q121 0 213 -35l-13 -151q-78 26 -179 26q-100 0 -154 -43t-70 -135l4 -4q78 45 178 45q283 0 283 -242z" />
    <glyph glyph-name="uni2087" unicode="&#x2087;" horiz-adv-x="770" 
d="M709 498v-160l-334 -647h-219l352 635h-447l11 172h637z" />
    <glyph glyph-name="uni2088" unicode="&#x2088;" horiz-adv-x="770" 
d="M266 283q0 -36 20 -50l30 -21q9 -7 38 -15q29 -7 39 -11t47 -14q72 45 72 102q0 94 -123 94t-123 -85zM528 -86q0 48 -40 71q-40 22 -61 29q-21 6 -33 10l-33 11q-22 6 -33 10q-88 -51 -88 -111t34 -86q34 -25 117 -24q137 0 137 90zM55 -72q0 119 123 185
q-88 63 -88 178q0 219 296 219t296 -219q0 -102 -92 -170q125 -61 125 -193q0 -248 -330 -248t-330 248z" />
    <glyph glyph-name="uni2089" unicode="&#x2089;" horiz-adv-x="770" 
d="M369 358q-129 0 -129 -110q0 -117 137 -117q98 0 141 53q0 96 -36 135t-113 39zM705 127q0 -448 -371 -446q-123 0 -223 38l26 150q87 -35 187 -35t152 52t61 163l-5 2q-70 -57 -199 -57t-201 66t-71 186q0 120 78 192t232 72q334 0 334 -383z" />
    <glyph glyph-name="uni208A" unicode="&#x208a;" horiz-adv-x="774" 
d="M686 18h-225v-223h-152v223h-223v162h223v226h152v-226h225v-162z" />
    <glyph glyph-name="uni208B" unicode="&#x208b;" horiz-adv-x="774" 
d="M674 29h-580v157h580v-157z" />
    <glyph glyph-name="uni208C" unicode="&#x208c;" horiz-adv-x="774" 
d="M674 -94h-572v139h572v-139zM674 162h-572v139h572v-139z" />
    <glyph glyph-name="uni208D" unicode="&#x208d;" horiz-adv-x="440" 
d="M287 68q0 -278 141 -486l-125 -12q-186 186 -186 496t186 499l125 -12q-141 -207 -141 -485z" />
    <glyph glyph-name="uni208E" unicode="&#x208e;" horiz-adv-x="440" 
d="M153 70q0 276 -141 483l127 12q185 -186 185 -496t-185 -499l-127 12q141 212 141 488z" />
    <glyph glyph-name="franc" unicode="&#x20a3;" horiz-adv-x="1263" 
d="M33 393h155v1143h981l7 -262h-705v-375h537l-2 -248h-535v-258h170v-194h-170v-199h-283v199h-155v194z" />
    <glyph glyph-name="lira" unicode="&#x20a4;" horiz-adv-x="1333" 
d="M295 514q0 31 -2 45h-139l-9 150h127q-10 43 -28 102h-101l-10 150h64q-18 70 -19 147q0 201 139 327t449 126q209 0 385 -72l-35 -244q-147 61 -319 61t-251 -65q-79 -66 -79 -174q0 -49 10 -106h574v-150h-531l25 -102h506v-150h-488l2 -31q0 -201 -143 -292l2 -5
q172 37 384 37t417 -26l-15 -256q-496 57 -1099 4l-13 250q92 23 145 99q52 77 52 175z" />
    <glyph glyph-name="peseta" unicode="&#x20a7;" horiz-adv-x="1673" 
d="M580 1060q0 159 -35 211t-131 52h-99v-524h99q94 0 130 51t36 210zM1610 272q0 -297 -236 -297q-92 0 -149 48l6 176q57 -41 133 -41q88 0 88 108q0 74 -85 130q-36 24 -72 53q-85 67 -85 243q0 100 60 180t156 80t157 -41l-12 -174q-55 31 -121 31q-78 0 -78 -90
q0 -67 84 -121q35 -23 70 -53q36 -30 60 -88q24 -60 24 -144zM1163 780h-110v-553q0 -72 59 -71q12 0 37 8l4 -162q-25 -20 -88 -20q-186 0 -186 243v555h-54v160h62l28 209l138 16v-225h110v-160zM414 1536q200 0 286 -104t86 -363q0 -258 -86 -366t-286 -107h-99v-596
h-194v1536h293z" />
    <glyph glyph-name="Euro" unicode="&#x20ac;" horiz-adv-x="1310" 
d="M894 207q167 0 312 76l21 -209q-158 -92 -385 -92q-276 0 -427 142t-190 439h-172v146h160v106h-160v152h172q39 276 201 428t430 151q211 0 352 -65l-51 -224q-111 45 -267 45q-322 1 -392 -335h565l-35 -152h-547v-106h508l-33 -146h-460q31 -190 131 -273t267 -83z
" />
    <glyph glyph-name="trademark" unicode="&#x2122;" horiz-adv-x="1390" 
d="M541 1421h-164v-438h-160v438h-164v142h488v-142zM1307 983h-136v236l5 165l-7 2l-151 -403h-115l-96 244l-57 155l-5 -2l3 -166v-231h-136v580h197l154 -396h6l55 156l94 240h189v-580z" />
    <glyph glyph-name="uni2126" unicode="&#x2126;" horiz-adv-x="1523" 
d="M762 1559q645 0 645 -664q0 -420 -336 -657v-7h346v-231h-586v334q281 219 281 549q0 223 -84 321t-266 98t-266 -98t-84 -321q0 -328 280 -549v-334h-586v231h347l2 7q-338 231 -338 657q0 332 167 498t478 166z" />
    <glyph glyph-name="onethird" unicode="&#x2153;" horiz-adv-x="1814" 
d="M575 1538v-809h-188v420l6 162l-6 2l-166 -96l-16 155l254 166h116zM1346 817q318 0 319 -230q0 -114 -123 -163v-4q141 -45 141 -178q0 -252 -335 -252q-166 0 -277 67l41 144q111 -61 234 -62q156 0 155 113q0 53 -49 78t-186 24v129q127 0 175 25t48 74q0 82 -136 82
t-237 -70l-45 139q119 84 275 84zM1296 1536h189l-1026 -1536h-187z" />
    <glyph glyph-name="twothirds" unicode="&#x2154;" horiz-adv-x="1814" 
d="M1367 817q319 0 319 -230q0 -114 -123 -163v-4q141 -45 141 -178q0 -252 -336 -252q-166 0 -276 67l41 144q111 -61 233 -62q156 0 156 113q0 53 -49 78t-187 24v129q127 0 175 25t48 74q0 82 -136 82t-236 -70l-45 139q119 84 275 84zM1327 1536h189l-1027 -1536h-186z
M387 1546q161 0 237 -65t76 -175t-82 -196q-82 -88 -266 -219v-6h348l-2 -156h-587v123q35 31 159 139t169 159q65 76 65 136q0 98 -139 98q-100 0 -220 -71l-45 147q125 86 287 86z" />
    <glyph glyph-name="oneeighth" unicode="&#x215b;" horiz-adv-x="1814" 
d="M1225 592q0 -36 20 -50q19 -12 29 -20t39 -16t39 -11t47 -14q72 45 71 101q0 94 -122 94t-123 -84zM1487 223q0 28 -11 41q-11 12 -25 28t-60 30q-47 14 -71 22t-34 10q-88 -51 -88 -112t36 -86t116 -25q137 0 137 92zM1014 236q0 119 121 186q-86 66 -86 178
q0 219 296 219t295 -219q0 -102 -92 -170q125 -61 125 -192q1 -248 -329 -248t-330 246zM1286 1536h189l-1026 -1536h-187zM582 1538v-809h-189v420l6 162l-6 2l-166 -96l-16 155l254 166h117z" />
    <glyph glyph-name="threeeighths" unicode="&#x215c;" horiz-adv-x="1814" 
d="M1253 592q1 -37 21 -50q20 -12 30 -20t38 -16t38 -11t47 -14q72 45 72 101q0 94 -123 94t-123 -84zM1516 223q0 27 -12 40t-17 21q-6 8 -37 23q-31 16 -54 22q-24 7 -48 15t-33 10q-88 -51 -88 -112t36 -86t115 -25q138 0 138 92zM1042 236q0 119 121 186q-86 66 -86 178
q0 219 296 219t296 -219q0 -102 -92 -170q125 -61 125 -192q0 -248 -330 -248t-330 246zM1319 1536h188l-1026 -1536h-186zM393 1546q320 0 320 -230q0 -114 -123 -163v-4q141 -45 141 -178q0 -254 -338 -254q-158 0 -274 67l41 144q109 -59 233 -60q156 0 156 111
q0 53 -50 79t-186 25v129q129 0 176 24t48 73q-1 84 -137 84t-238 -72l-43 139q117 86 274 86z" />
    <glyph glyph-name="fiveeighths" unicode="&#x215d;" horiz-adv-x="1814" 
d="M1247 592q1 -37 21 -50q20 -12 29 -20t38 -16t39 -11t47 -14q72 45 72 101q0 94 -123 94t-123 -84zM1509 223q0 28 -11 41q-11 12 -17 20t-37 23q-31 16 -54 22q-24 7 -48 15t-33 10q-88 -51 -88 -112q-1 -61 35 -86t116 -25q137 0 137 92zM1036 236q0 119 121 186
q-86 66 -86 178q0 219 296 219t296 -219q0 -102 -92 -170q125 -61 125 -192q0 -248 -330 -248t-330 246zM1309 1536h188l-1026 -1536h-186zM780 1008q0 -289 -323 -289q-164 0 -277 57l31 148q109 -54 211 -54t138 29t36 92q0 102 -150 103q-104 0 -184 -27l-74 66l39 403
h508l4 -162h-364l-13 -143q61 12 130 12q288 1 288 -235z" />
    <glyph glyph-name="seveneighths" unicode="&#x215e;" horiz-adv-x="1814" 
d="M1229 592q0 -36 20 -50q19 -12 29 -20t39 -16t39 -11t47 -14q72 45 72 101q0 94 -123 94t-123 -84zM1491 223q0 28 -11 41q-11 12 -20 23t-48 26q-39 16 -51 19q-13 4 -37 12t-34 10q-88 -51 -88 -112t36 -86t116 -25q137 0 137 92zM1018 236q0 119 121 186
q-86 66 -86 178q0 219 296 219t296 -219q0 -102 -93 -170q125 -61 125 -192q1 -248 -329 -248t-330 246zM1290 1536h189l-1026 -1536h-187zM854 1534v-160l-334 -645h-219l352 635h-446l10 170h637z" />
    <glyph glyph-name="partialdiff" unicode="&#x2202;" horiz-adv-x="1302" 
d="M942 725q0 82 -66 141q-67 59 -182 60q-162 0 -252 -122t-90 -355q0 -264 242 -265q162 0 255 154t93 387zM655 1130q180 0 301 -102l5 4q-57 293 -365 293q-215 0 -379 -117l-67 187q211 156 491 155q232 0 396 -158q83 -80 132 -222t50 -330q0 -387 -173 -628
t-491 -241q-239 0 -355 128t-116 370q0 311 152 486t419 175z" />
    <glyph glyph-name="uni2206" unicode="&#x2206;" horiz-adv-x="1531" 
d="M762 1212l-55 -157l-310 -822h725l-301 822l-53 157h-6zM860 1542l598 -1542h-1386l598 1542h190z" />
    <glyph glyph-name="product" unicode="&#x220f;" horiz-adv-x="1533" 
d="M541 -319h-246v1652l-182 17l-7 186h1326l-5 -184l-182 -19v-1652h-246v1634h-458v-1634z" />
    <glyph glyph-name="summation" unicode="&#x2211;" horiz-adv-x="1431" 
d="M164 -319v149l624 799l-624 741v166h1143l6 -227h-797l-2 -4l109 -121l444 -527v-59l-465 -569l-108 -125l4 -6l164 4l684 2l-7 -223h-1175z" />
    <glyph glyph-name="minus" unicode="&#x2212;" horiz-adv-x="1228" 
d="M1077 567h-925v246h925v-246z" />
    <glyph glyph-name="uni2219" unicode="&#x2219;" horiz-adv-x="593" 
d="M139 707q0 156 158 156t158 -155t-158 -155q-84 0 -121 36t-37 118z" />
    <glyph glyph-name="radical" unicode="&#x221a;" horiz-adv-x="1230" 
d="M14 784v242h353l231 -743h6l39 159l318 1172h274l-473 -1614h-311l-271 784h-166z" />
    <glyph glyph-name="infinity" unicode="&#x221e;" horiz-adv-x="1544" 
d="M444 541q54 0 86 16t66 59q33 43 82 148q-84 129 -215 129q-76 0 -118 -49t-42 -130t44 -127q43 -46 97 -46zM1100 879q-56 -1 -88 -17t-63 -57q-30 -41 -83 -152q86 -127 217 -127q74 0 116 50t42 132q0 81 -43 126q-42 45 -98 45zM1084 319q-186 0 -314 160
q-113 -160 -319 -160q-159 1 -261 105t-102 284t93 285q93 107 281 107t310 -160q117 160 324 160q158 0 260 -104t102 -283q0 -178 -94 -286t-280 -108z" />
    <glyph glyph-name="uni2224" unicode="&#x2224;" horiz-adv-x="593" 
d="M139 707q0 156 158 156t158 -155t-158 -155q-84 0 -121 36t-37 118z" />
    <glyph glyph-name="logicaland" unicode="&#x2227;" horiz-adv-x="593" 
d="M139 707q0 156 158 156t158 -155t-158 -155q-84 0 -121 36t-37 118z" />
    <glyph glyph-name="integral" unicode="&#x222b;" horiz-adv-x="663" 
d="M201 70v1171q0 391 444 397l6 -176q-186 -4 -186 -223l-2 -1161q0 -216 -108 -314t-339 -98l-6 174q98 4 144 58t47 172z" />
    <glyph glyph-name="approxequal" unicode="&#x2248;" horiz-adv-x="1320" 
d="M904 328q-104 0 -255 49q-150 49 -215 49q-125 0 -233 -66v209q111 66 214 66t253 -50t217 -50q121 0 235 65v-209q-112 -63 -216 -63zM904 721q-104 0 -255 49q-150 49 -215 49q-125 0 -233 -65v211q113 63 215 63t252 -50t217 -50q121 0 235 65v-209q-112 -63 -216 -63
z" />
    <glyph glyph-name="notequal" unicode="&#x2260;" horiz-adv-x="1320" 
d="M1120 981v-209h-311l-92 -190h403v-209h-506l-125 -254l-167 84l84 170h-205v209h307l94 190h-401v209h504l122 248l166 -84l-82 -164h209z" />
    <glyph glyph-name="lessequal" unicode="&#x2264;" horiz-adv-x="1320" 
d="M1116 84h-917v215h917v-215zM1116 1047l-581 -170l-160 -43v-7l160 -41l581 -161v-252l-926 332v258l924 340z" />
    <glyph glyph-name="greaterequal" unicode="&#x2265;" horiz-adv-x="1320" 
d="M1108 84h-918v215h918v-215zM190 373v252l582 161l162 41v7l-162 43l-579 170v256l923 -340v-258z" />
    <glyph glyph-name="dotmath" unicode="&#x22c5;" horiz-adv-x="593" 
d="M139 707q0 156 158 156t158 -155t-158 -155q-84 0 -121 36t-37 118z" />
    <glyph glyph-name="lozenge" unicode="&#x25ca;" horiz-adv-x="1269" 
d="M330 690l303 -352l305 352l-305 357zM53 690l582 680l582 -680l-582 -680z" />
    <glyph glyph-name="parenleft.case" horiz-adv-x="708" 
d="M174 768q0 565 326 948l202 -16q-278 -404 -278 -930t276 -934l-200 -16q-156 174 -241 421t-85 527z" />
    <glyph glyph-name="parenright.case" horiz-adv-x="706" 
d="M282 766q0 528 -276 934l201 16q326 -379 325 -948q0 -282 -85 -528t-240 -420l-201 16q276 402 276 930z" />
    <glyph glyph-name="hyphen.case" horiz-adv-x="813" 
d="M123 864h567v-194h-567v194z" />
    <glyph glyph-name="bracketleft.case" horiz-adv-x="696" 
d="M174 -174v1882h516v-190h-278v-1506h278v-186h-516z" />
    <glyph glyph-name="bracketright.case" horiz-adv-x="696" 
d="M522 1708v-1882h-516v184h281v1508h-281v190h516z" />
    <glyph glyph-name="grave.case" 
d="M592 1630h-213l-254 244h315z" />
    <glyph glyph-name="braceleft.case" horiz-adv-x="776" 
d="M543 987q0 -156 -121 -217v-6q121 -63 121 -215q1 -74 -13 -188q-14 -113 -14 -183t46 -115t143 -45h65v-198h-53q-233 0 -335 83q-101 83 -101 247q0 74 17 206t17 194q0 64 -39 107t-102 54v112q63 9 102 53t39 108t-17 196q-17 131 -17 204q0 164 101 247t335 83h53
v-198h-65q-188 0 -189 -166q0 -63 14 -177t13 -186z" />
    <glyph glyph-name="braceright.case" horiz-adv-x="776" 
d="M233 549q0 152 123 215v6q-123 57 -123 217q-1 71 13 185t14 184t-46 114t-142 46h-66v198h53q233 0 333 -83t102 -247q0 -74 -16 -204t-17 -196q0 -64 39 -107t102 -54v-112q-63 -9 -102 -53t-39 -108t16 -196q16 -133 17 -204q0 -164 -100 -247t-335 -83h-53v198h66
q96 0 142 45t46 115t-13 183q-14 114 -14 188z" />
    <glyph glyph-name="dieresis.case" 
d="M614 1856q114 0 115 -112q0 -112 -115 -112q-59 0 -87 26t-27 85q0 113 114 113zM98 1743q0 113 116 113t116 -112t-115 -112q-59 0 -88 26t-29 85z" />
    <glyph glyph-name="guillemotleft.case" horiz-adv-x="1308" 
d="M668 991l-359 -223l359 -225v-207l-619 422v20l619 422v-209zM1153 991l-358 -223l358 -225v-207l-618 422v20l618 422v-209z" />
    <glyph glyph-name="uni00AD.case" horiz-adv-x="813" 
d="M123 864h567v-194h-567v194z" />
    <glyph glyph-name="macron.case" 
d="M723 1792v-137h-623v137h623z" />
    <glyph glyph-name="acute.case" 
d="M393 1870h340l-276 -242h-211z" />
    <glyph glyph-name="guillemotright.case" horiz-adv-x="1308" 
d="M131 336v207l356 225l-356 223v209l621 -422v-20zM614 336v207l357 225l-357 223v209l621 -422v-20z" />
    <glyph glyph-name="circumflex.case" 
d="M268 1872h279l227 -246h-235l-129 152l-129 -152h-232z" />
    <glyph glyph-name="caron.case" 
d="M549 1626h-279l-221 246h234l129 -160l129 160h231z" />
    <glyph glyph-name="breve.case" 
d="M555 1872h195q0 -256 -336 -256t-336 256h192q0 -117 142 -117t143 117z" />
    <glyph glyph-name="dotaccent.case" 
d="M571 1738q-1 -58 -37 -85t-122 -27t-123 25t-37 86q0 115 160 114q86 0 123 -27q36 -28 36 -86z" />
    <glyph glyph-name="ring.case" 
d="M307 1661q-1 -74 101 -74t102 74t-102 74t-101 -74zM170 1667q0 188 238 188t237 -188q0 -190 -239 -190q-123 0 -180 45q-56 45 -56 145z" />
    <glyph glyph-name="ogonek.case" 
d="M483 -127q0 -88 113 -90q55 0 109 24l22 -141q-92 -49 -207 -49t-176 51t-61 139t58 152q59 63 161 86l114 -45q-55 0 -94 -39t-39 -88z" />
    <glyph glyph-name="tilde.case" 
d="M274 1872q80 0 168 -51t119 -52q57 0 72 76l115 -2q-6 -105 -60 -169t-131 -64q-78 0 -164 51t-114 51q-60 0 -74 -76h-121q6 104 58 170t132 66z" />
    <glyph glyph-name="hungarumlaut.case" 
d="M561 1870h277l-240 -244h-192zM190 1870h273l-197 -244h-170z" />
    <glyph glyph-name="endash.case" horiz-adv-x="1073" 
d="M123 864h825v-194h-825v194z" />
    <glyph glyph-name="emdash.case" horiz-adv-x="1437" 
d="M123 864h1192v-194h-1192v194z" />
    <glyph glyph-name="guilsinglleft.case" horiz-adv-x="817" 
d="M696 991l-358 -223l358 -225v-207l-618 422v20l618 422v-209z" />
    <glyph glyph-name="guilsinglright.case" horiz-adv-x="817" 
d="M121 336v207l356 225l-356 223v209l620 -422v-20z" />
    <glyph glyph-name="dollar.dnom" horiz-adv-x="669" 
d="M395 639q-133 0 -133 -72q0 -37 60 -59t130 -37q71 -13 130 -67t59 -149t-56 -157t-161 -80l-8 -141h-144l9 139q-121 14 -195 58l23 153q109 -61 235 -61t125 78q0 61 -189 101q-71 15 -130 69q-60 54 -60 144t57 154t175 79l12 151h143l-12 -151q66 -8 149 -37
l-22 -150q-115 35 -197 35z" />
    <glyph glyph-name="parenleft.dnom" horiz-adv-x="440" 
d="M287 370q0 -276 141 -483l-125 -12q-186 186 -186 494t186 501l125 -12q-141 -212 -141 -488z" />
    <glyph glyph-name="parenright.dnom" horiz-adv-x="440" 
d="M153 374q0 274 -141 484l127 12q185 -190 185 -498t-185 -497l-127 12q141 213 141 487z" />
    <glyph glyph-name="plus.dnom" horiz-adv-x="774" 
d="M686 328h-225v-224h-152v224h-223v161h223v226h152v-226h225v-161z" />
    <glyph glyph-name="comma.dnom" horiz-adv-x="339" 
d="M166 176q53 0 80 -26q57 -54 -7 -198q-34 -75 -77 -126l-66 14l33 142q-25 10 -45 34t-21 56q1 104 103 104z" />
    <glyph glyph-name="period.dnom" horiz-adv-x="339" 
d="M276 80q0 -98 -106 -98q-55 0 -81 22t-26 76q0 100 107 100q57 0 82 -24q24 -25 24 -76z" />
    <glyph glyph-name="zero.dnom" horiz-adv-x="770" 
d="M530 403q0 152 -33 206q-34 55 -112 55t-111 -54q-32 -54 -32 -207q0 -155 32 -207t111 -52q77 0 111 53q34 54 34 206zM55 404q0 218 78 316t253 97q175 1 253 -97t78 -316t-79 -316t-252 -98t-252 98t-79 316z" />
    <glyph glyph-name="one.dnom" horiz-adv-x="571" 
d="M449 809v-809h-189v420l6 162l-6 2l-166 -97l-16 156l254 166h117z" />
    <glyph glyph-name="two.dnom" horiz-adv-x="745" 
d="M364 817q160 1 236 -65t76 -176t-83 -198t-265 -214v-6h348l-2 -158h-588v123q39 35 121 105q221 190 256 261q16 35 16 70q0 98 -139 98q-102 0 -219 -73l-45 149q127 84 288 84z" />
    <glyph glyph-name="three.dnom" horiz-adv-x="745" 
d="M360 817q318 0 318 -230q0 -114 -123 -163v-4q141 -45 141 -178q0 -252 -336 -252q-166 0 -276 67l41 144q111 -61 233 -62q156 0 156 113q0 53 -49 78t-186 24v129q127 0 175 25t48 74q0 82 -136 82t-237 -70l-45 139q120 84 276 84z" />
    <glyph glyph-name="four.dnom" horiz-adv-x="770" 
d="M481 305l4 174l9 164h-7l-135 -201l-92 -131l2 -6h219zM651 154v-154h-174v154h-416l-14 108l377 545h227v-502h90l-6 -151h-84z" />
    <glyph glyph-name="five.dnom" horiz-adv-x="770" 
d="M414 516q288 0 288 -237q0 -289 -323 -289q-166 0 -277 59l31 146q117 -53 215 -53t134 29q36 30 36 93q0 100 -149 101q-100 0 -185 -25l-73 63l39 404h507l5 -160h-365l-12 -143q82 12 129 12z" />
    <glyph glyph-name="six.dnom" horiz-adv-x="770" 
d="M526 281q0 55 -30 79t-114 25q-83 0 -126 -51q2 -104 35 -148t108 -45q127 1 127 140zM713 281q0 -143 -81 -217t-235 -74q-336 0 -336 395q-1 211 99 323t291 111q121 0 213 -35l-13 -151q-78 27 -179 27q-100 0 -154 -44q-54 -43 -70 -135l4 -4q78 45 178 45
q283 1 283 -241z" />
    <glyph glyph-name="seven.dnom" horiz-adv-x="770" 
d="M709 807v-160l-334 -647h-219l352 635h-447l11 172h637z" />
    <glyph glyph-name="eight.dnom" horiz-adv-x="770" 
d="M266 592q0 -37 20 -50q20 -12 30 -20q9 -8 38 -16t39 -11t47 -14q72 45 72 101q0 94 -123 94t-123 -84zM528 223q0 28 -11 41q-11 12 -17 20t-37 23q-31 16 -54 22q-24 7 -48 15t-33 10q-88 -51 -88 -112t36 -86t115 -25q137 0 137 92zM55 236q0 119 121 186
q-86 66 -86 178q0 219 296 219t296 -219q0 -102 -92 -170q125 -61 125 -192q0 -248 -330 -248t-330 246z" />
    <glyph glyph-name="nine.dnom" horiz-adv-x="770" 
d="M369 668q-129 0 -129 -111q0 -117 137 -117q98 1 141 54q0 96 -36 135t-113 39zM705 436q0 -448 -371 -446q-123 0 -223 39l26 149q85 -35 187 -35q102 1 153 53t60 162l-5 2q-70 -57 -199 -57t-201 67q-72 68 -71 186q0 118 78 190t232 73q334 0 334 -383z" />
    <glyph glyph-name="equal.dnom" horiz-adv-x="774" 
d="M674 215h-572v139h572v-139zM674 471h-572v139h572v-139z" />
    <glyph glyph-name="cent.dnom" horiz-adv-x="669" 
d="M442 633q-96 0 -142 -50t-46 -171q0 -229 203 -230q86 0 157 33l13 -137q-57 -37 -156 -47l-8 -154h-148l11 158q-266 47 -266 386t300 367l13 154h147l-14 -156q51 -7 112 -30l-10 -150q-70 27 -166 27z" />
    <glyph glyph-name="minus.dnom" horiz-adv-x="774" 
d="M674 338h-580v158h580v-158z" />
    <glyph glyph-name="zero.lf" horiz-adv-x="1288" 
d="M810 262q124 88 124 504t-124 501q-58 40 -164 40t-168 -41q-126 -86 -126 -503t125 -502q59 -40 167 -40t166 41zM1204 771q0 -423 -133 -608t-429 -185t-427 184t-131 608t130 604t429 180t430 -180t131 -603z" />
    <glyph glyph-name="one.lf" horiz-adv-x="966" 
d="M750 1538v-1538h-283v1022l4 164l-4 4l-297 -189l-29 236l443 301h166z" />
    <glyph glyph-name="two.lf" horiz-adv-x="1271" 
d="M500 250h647l-6 -250h-1006v186q192 185 339 325q147 139 205 213q134 171 157 242q24 70 24 121q0 98 -69 156q-70 57 -213 57q-195 0 -381 -141l-68 230q209 164 500 163q250 0 382 -116t132 -326q0 -209 -185 -420q-96 -111 -195 -204t-263 -230v-6z" />
    <glyph glyph-name="three.lf" horiz-adv-x="1271" 
d="M1167 461q0 -225 -144 -352q-145 -127 -423 -127t-477 118l55 224q186 -106 402 -107q158 0 238 69q80 68 81 186q0 118 -98 174t-346 56v201q231 0 325 55q94 56 94 156q0 198 -284 197q-219 0 -397 -140l-68 220q201 161 465 161t401 -108t137 -299q0 -236 -227 -334
v-4q266 -84 266 -346z" />
    <glyph glyph-name="four.lf" horiz-adv-x="1312" 
d="M817 547l10 573l9 166l-5 2l-83 -145l-271 -455l-86 -135l2 -6h424zM1063 309v-309h-254v309h-694l-23 178l639 1049h332v-989h174l-8 -238h-166z" />
    <glyph glyph-name="five.lf" horiz-adv-x="1226" 
d="M1141 526q0 -545 -555 -544q-266 0 -461 118l51 226q188 -109 368 -109t253 71t73 206t-72 191q-73 56 -244 56t-314 -63l-101 108l62 750h860l10 -250h-653l-27 -346q127 33 256 33q494 -1 494 -447z" />
    <glyph glyph-name="six.lf" horiz-adv-x="1263" 
d="M911 539q0 123 -62 180t-202 57q-74 0 -157 -33t-128 -86q2 -244 69 -341t216 -97q264 1 264 320zM1182 535q0 -553 -546 -553q-270 0 -411 174t-141 578t168 612q168 209 493 208q195 0 349 -59l-21 -240q-139 49 -295 50q-205 -1 -306 -101t-122 -317l4 -4
q154 109 344 108q484 1 484 -456z" />
    <glyph glyph-name="seven.lf" horiz-adv-x="1275" 
d="M1184 1536v-240l-602 -1296h-310l643 1274h-817l13 262h1073z" />
    <glyph glyph-name="eight.lf" horiz-adv-x="1275" 
d="M395 1141q0 -127 137 -187q51 -24 85 -34l102 -31q174 94 174 239q0 203 -249 203t-249 -190zM926 420q0 79 -47 126q-18 17 -43 41t-91 48q-67 24 -105 38t-91 29q-201 -106 -201 -264q0 -123 71 -179t228 -56q279 0 279 217zM84 440q0 113 61 210t172 157
q-176 119 -176 346q0 193 123 297t375 104q498 0 498 -403q0 -217 -191 -338v-4q244 -109 244 -371q0 -457 -553 -457t-553 459z" />
    <glyph glyph-name="nine.lf" horiz-adv-x="1265" 
d="M610 1317q-262 0 -262 -253t277 -253q194 0 284 117q-2 209 -79 299t-220 90zM1182 836q0 -446 -156 -650t-477 -204q-217 0 -375 71l39 230q152 -61 328 -61t269 108q93 109 108 354l-5 4q-131 -98 -357 -98t-350 124q-122 124 -122 352t133 358t402 130t416 -181
t147 -537z" />
    <glyph glyph-name="dollar.numr" horiz-adv-x="669" 
d="M395 1366q-133 0 -133 -70q0 -31 39 -49q39 -19 94 -33t111 -34t96 -70q39 -50 39 -135t-56 -149t-161 -81l-8 -139h-144l9 137q-115 12 -195 58l23 153q113 -61 237 -61t123 80q0 61 -189 101q-71 14 -130 68t-60 144q0 90 57 154t175 78l12 153h143l-12 -153
q66 -8 149 -37l-22 -148q-106 33 -197 33z" />
    <glyph glyph-name="parenleft.numr" horiz-adv-x="440" 
d="M287 1101q0 -277 141 -485l-125 -14q-186 186 -186 496t186 499l125 -12q-141 -207 -141 -484z" />
    <glyph glyph-name="parenright.numr" horiz-adv-x="440" 
d="M153 1102q0 276 -141 483l127 12q185 -186 185 -496t-185 -499l-127 14q141 210 141 486z" />
    <glyph glyph-name="plus.numr" horiz-adv-x="774" 
d="M686 1055h-225v-221h-152v221h-223v164h223v223h152v-223h225v-164z" />
    <glyph glyph-name="comma.numr" horiz-adv-x="339" 
d="M166 903q53 1 80 -25q57 -54 -7 -199q-34 -75 -77 -126l-66 14l33 142q-25 11 -45 35t-21 55q1 104 103 104z" />
    <glyph glyph-name="period.numr" horiz-adv-x="339" 
d="M63 809q1 100 107 100t106 -99t-106 -99q-57 1 -82 23t-25 75z" />
    <glyph glyph-name="zero.numr" horiz-adv-x="770" 
d="M530 1130q0 152 -33 206q-34 54 -112 54t-111 -52q-32 -54 -32 -207t32 -205t111 -54q77 0 111 53t34 205zM55 1133q0 217 78 315t253 98t253 -98t78 -315q0 -218 -79 -317t-252 -99t-252 99t-79 317z" />
    <glyph glyph-name="one.numr" horiz-adv-x="571" 
d="M449 1538v-809h-189v420l6 162l-6 2l-166 -96l-16 155l254 166h117z" />
    <glyph glyph-name="two.numr" horiz-adv-x="745" 
d="M363 1546q161 0 237 -65t76 -175t-82 -196q-82 -88 -266 -219v-6h348l-2 -156h-588v123q35 31 89 78t85 74t78 68t94 102t47 112q0 98 -139 98q-100 0 -219 -71l-45 147q125 86 287 86z" />
    <glyph glyph-name="three.numr" horiz-adv-x="745" 
d="M344 1546q320 0 320 -230q0 -114 -123 -163v-4q141 -45 141 -178q0 -254 -338 -254q-158 0 -274 67l41 144q109 -59 233 -60q156 0 156 111q0 53 -50 79t-186 25v129q129 0 176 24t47 73q0 84 -136 84t-238 -72l-43 139q117 86 274 86z" />
    <glyph glyph-name="four.numr" horiz-adv-x="770" 
d="M481 1032l4 174l9 164h-7l-135 -201l-92 -131l2 -6h219zM651 881v-152h-174v152h-416l-14 108l377 547h227v-504h90l-6 -151h-84z" />
    <glyph glyph-name="five.numr" horiz-adv-x="770" 
d="M702 1008q0 -289 -323 -289q-164 0 -277 57l31 148q109 -54 211 -54t138 29t36 92q0 102 -149 103q-104 0 -185 -27l-73 66l39 403h507l5 -162h-365l-12 -143q61 12 129 12q288 1 288 -235z" />
    <glyph glyph-name="six.numr" horiz-adv-x="770" 
d="M526 1010q0 104 -129 104q-96 0 -141 -51q2 -105 35 -149t108 -44q127 1 127 140zM713 1010q0 -145 -81 -219t-235 -74q-336 0 -336 395q-1 211 99 323t291 111q117 0 213 -33l-13 -151q-78 27 -179 27q-100 0 -154 -43t-70 -136l4 -4q78 45 178 45q283 1 283 -241z" />
    <glyph glyph-name="seven.numr" horiz-adv-x="770" 
d="M709 1534v-160l-334 -645h-219l352 635h-447l11 170h637z" />
    <glyph glyph-name="eight.numr" horiz-adv-x="770" 
d="M266 1321q0 -37 20 -50t30 -21q9 -8 38 -15q29 -8 39 -11t47 -14q72 45 72 101q0 94 -123 94t-123 -84zM528 952q0 50 -48 75t-94 37q-47 13 -58 17q-88 -47 -88 -109t34 -87t117 -25q137 0 137 92zM55 965q0 121 123 186q-88 61 -88 178q0 217 296 217t296 -217
q0 -104 -92 -170q125 -61 125 -194q0 -248 -330 -248t-330 248z" />
    <glyph glyph-name="nine.numr" horiz-adv-x="770" 
d="M369 1397q-129 0 -129 -111q0 -117 137 -117q98 1 141 54q0 96 -36 135t-113 39zM705 1165q0 -450 -371 -448q-117 0 -223 41l26 147q93 -35 191 -35t149 52t60 165l-5 3q-66 -58 -197 -58t-203 66t-71 184q0 118 79 193q79 74 231 73q334 0 334 -383z" />
    <glyph glyph-name="equal.numr" horiz-adv-x="774" 
d="M674 944h-572v139h572v-139zM674 1200h-572v137h572v-137z" />
    <glyph glyph-name="cent.numr" horiz-adv-x="669" 
d="M439 1360q-95 0 -140 -49t-45 -170q0 -231 203 -232q78 0 157 33l13 -135q-55 -37 -156 -49l-8 -152h-148l11 156q-266 47 -266 386t300 368l13 155h147l-14 -158q59 -8 112 -28l-10 -150q-74 25 -169 25z" />
    <glyph glyph-name="minus.numr" horiz-adv-x="774" 
d="M674 1067h-580v156h580v-156z" />
    <glyph glyph-name="numbersign.osf" horiz-adv-x="1228" 
d="M516 797l-41 -260h234l43 260h-236zM80 537h190l45 260h-233v188h258l51 344h203l-51 -344h235l51 344h199l-51 -344h170v-188h-197l-41 -260h238v-189h-264l-52 -348h-198l51 348h-235l-54 -348h-200l51 348h-166v189z" />
    <glyph glyph-name="dollar.osf" horiz-adv-x="1011" 
d="M938 354q0 -140 -83 -243q-83 -102 -253 -127l-16 -260h-205l16 256q-176 16 -297 88l31 221q145 -96 352 -96q106 0 160 43q53 43 53 110q0 68 -61 108t-151 66t-177 62q-88 36 -149 112q-62 76 -62 210t93 230q93 95 272 115l18 246h205l-18 -250q119 -16 223 -61
l-23 -217q-152 63 -323 63q-93 0 -145 -35t-52 -95t62 -96t148 -62q87 -26 173 -60q85 -34 147 -110q62 -78 62 -218z" />
    <glyph glyph-name="zero.osf" horiz-adv-x="1271" 
d="M915 649q0 254 -64 347q-65 94 -215 94t-216 -94t-66 -348q0 -255 66 -346t216 -91t215 92q64 92 64 346zM1178 653q0 -352 -130 -513q-130 -160 -414 -160t-412 160t-128 513q0 352 128 512t414 160t414 -160t128 -512z" />
    <glyph glyph-name="one.osf" horiz-adv-x="948" 
d="M727 1307v-1307h-268v817l4 164l-4 4l-142 -88l-139 -82l-26 223l415 269h160z" />
    <glyph glyph-name="two.osf" horiz-adv-x="1191" 
d="M483 227h600l-6 -227h-954v176q68 57 207 172q386 320 446 443q31 61 31 131t-65 118q-65 47 -197 47q-188 0 -365 -122l-67 213q209 145 462 145q253 1 377 -105t125 -288q0 -182 -167 -350q-89 -90 -179 -162t-248 -185v-6z" />
    <glyph glyph-name="three.osf" horiz-adv-x="1175" 
d="M1071 348q0 -270 -217 -418t-614 -155l-23 217q309 8 456 103q146 95 146 247q0 203 -278 203q-70 0 -135 -13l-13 185q221 25 304 73t83 140q0 162 -258 162q-209 0 -372 -115l-60 211q80 63 201 100t250 37q231 0 355 -98t124 -260q0 -209 -174 -295v-4
q225 -82 225 -320z" />
    <glyph glyph-name="four.osf" horiz-adv-x="1253" 
d="M807 346l14 584l8 166l-4 2l-88 -142l-307 -473l-90 -131l2 -6h465zM1040 131v-342l-241 -14v356h-717l-21 174l682 1018l297 -20v-957h166l-8 -215h-158z" />
    <glyph glyph-name="five.osf" horiz-adv-x="1155" 
d="M1071 371q0 -274 -215 -433t-625 -163l-24 227q299 4 451 96t153 246q0 197 -289 197q-172 0 -313 -66l-92 107l61 725h819l11 -252h-623l-25 -322q117 35 242 35q225 0 347 -104t122 -293z" />
    <glyph glyph-name="six.osf" horiz-adv-x="1214" 
d="M872 526q0 117 -60 172t-189 56q-72 0 -150 -31t-119 -82q2 -236 67 -329t202 -93q249 0 249 307zM1130 526q0 -274 -130 -409t-377 -135q-539 0 -539 682q0 212 67 378q126 312 446 433q148 55 318 59l39 -227q-264 -6 -418 -123t-190 -318l4 -4q145 102 322 103
q458 -1 458 -439z" />
    <glyph glyph-name="seven.osf" horiz-adv-x="1181" 
d="M1092 1305v-226l-582 -1280h-293l592 1250h-727l16 256h994z" />
    <glyph glyph-name="eight.osf" horiz-adv-x="1239" 
d="M389 963q0 -68 49 -100q29 -19 56 -38t217 -65q154 76 153 186q0 86 -57 128t-189 42q-229 1 -229 -153zM893 360q0 65 -43 99q-25 19 -43 33q-19 14 -63 29t-66 23t-78 23q-57 16 -78 23q-182 -86 -182 -211q0 -99 68 -145t219 -46q266 0 266 172zM84 375q0 94 56 175
t155 134q-154 100 -154 289q1 350 479 350t478 -350q0 -182 -162 -283v-4q219 -94 219 -311q1 -397 -535 -397t-536 397z" />
    <glyph glyph-name="nine.osf" horiz-adv-x="1200" 
d="M584 1083q-238 1 -238 -239t248 -240q193 0 256 127q-2 190 -64 271t-202 81zM1114 692q0 -667 -502 -855q-147 -54 -327 -58l-25 223q240 8 396 127t188 342l-4 4q-122 -98 -318 -98t-317 117t-121 345t129 356t381 128t386 -158t134 -473z" />
    <glyph glyph-name="cent.osf" horiz-adv-x="1019" 
d="M354 616q0 -414 314 -413q150 0 256 57l18 -209q-94 -61 -244 -74l-14 -253h-205l17 260q-412 72 -412 644t459 619l18 248h205l-18 -252q106 -16 184 -47l-17 -229q-111 47 -227 47q-184 0 -259 -90t-75 -308z" />
    <glyph glyph-name="sterling.osf" horiz-adv-x="1150" 
d="M682 1348q188 0 348 -60l-33 -217q-141 53 -290 53q-291 0 -291 -198q0 -66 26 -168h476v-193h-429q8 -47 9 -108q0 -170 -119 -248l4 -6q147 33 343 33t368 -23l-13 -225q-448 47 -993 4l-8 219q82 18 125 83t43 135t-10 136h-132l-10 193h90q-35 117 -34 190
q0 176 123 288q124 112 407 112z" />
    <glyph glyph-name="currency.osf" horiz-adv-x="1228" 
d="M412 673q0 -81 58 -137t142 -56t142 56t59 137q0 81 -58 137q-59 56 -143 56t-142 -56t-58 -137zM238 671q0 103 51 193l-133 137l133 146l139 -146q88 49 184 49t185 -49l143 146l133 -146l-137 -141q51 -92 51 -187t-43 -181l127 -134l-133 -143l-127 131
q-90 -57 -199 -57t-198 55l-127 -129l-131 143l125 129q-43 81 -43 184z" />
    <glyph glyph-name="yen.osf" horiz-adv-x="1228" 
d="M227 614h187l-377 715h285l227 -530l63 -154h6l60 154l227 530h279l-367 -715h191v-131h-254v-94h254v-131h-254v-258h-277v258h-250v131h250v94h-250v131z" />
    <glyph glyph-name="franc.osf" horiz-adv-x="1228" 
d="M70 346h145v983h922l6 -233h-670v-316h510l-2 -221h-508v-213h158v-174h-158v-172h-258v172h-145v174z" />
    <glyph glyph-name="lira.osf" horiz-adv-x="1228" 
d="M164 944q0 178 128 291t419 113q203 0 362 -62l-33 -217q-139 53 -305 53q-307 0 -307 -200q0 -45 10 -93h533v-129h-498q16 -57 23 -88h475v-129h-457v-26q0 -174 -123 -248l2 -4q169 33 359 33t387 -25l-15 -225q-493 49 -1024 4l-8 219q82 20 127 85t45 144l-2 43
h-125l-8 129h113q-2 6 -25 88h-90l-10 129h61q-14 51 -14 115z" />
    <glyph glyph-name="peseta.osf" horiz-adv-x="1228" 
d="M295 696q63 0 87 44t24 187q0 142 -23 183t-88 41h-76v-455h76zM1178 238q0 -254 -179 -254q-66 0 -110 30l4 146q37 -29 92 -29q70 0 70 105q0 72 -87 137q-32 23 -60 79t-28 147t47 162q46 71 130 70q59 0 104 -30l-8 -148q-41 23 -84 23q-63 0 -63 -74t60 -121
q26 -20 52 -47q60 -64 60 -196zM770 -14q-139 0 -139 198v504h-43v133h47l24 183l101 18v-201h90v-133h-88v-500q0 -59 47 -59l29 6l2 -133q-20 -16 -70 -16zM293 1329q150 1 207 -81t57 -319t-55 -319t-207 -82h-76v-528h-149v1329h223z" />
    <glyph glyph-name="Euro.osf" horiz-adv-x="1228" 
d="M826 1114q-156 0 -247 -60t-122 -190h571l-45 -137h-545v-115h508l-45 -131h-444q68 -279 379 -278q164 0 290 73l13 -208q-145 -94 -373 -95q-532 0 -612 508h-93v131h80v115h-80v137h95q84 485 618 486q231 0 385 -74l-65 -209q-112 47 -268 47z" />
    <glyph glyph-name="exclam.sc" horiz-adv-x="595" 
d="M162 104q0 129 140 129t140 -127t-139 -126q-73 0 -107 28t-34 96zM391 379h-188l-39 950h264z" />
    <glyph glyph-name="ampersand.sc" horiz-adv-x="1351" 
d="M602 1163q-63 1 -100 -33t-37 -103t63 -171q100 58 150 106t51 103q0 98 -127 98zM356 365q0 -164 208 -164q108 0 214 84q-170 137 -307 293q-115 -104 -115 -213zM593 1350q179 0 281 -73t102 -197t-148 -243q-56 -47 -84 -65t-99 -65q123 -135 281 -254
q74 115 104 252h207q-20 -184 -139 -371q131 -82 237 -129l-86 -221q-143 63 -299 172q-195 -180 -442 -181q-207 1 -306 107t-100 262q0 223 246 395q-110 170 -110 303q0 132 88 220t267 88z" />
    <glyph glyph-name="question.sc" horiz-adv-x="991" 
d="M334 104q0 129 140 129t140 -127t-139 -126q-73 0 -107 28t-34 96zM909 1012q0 -272 -329 -430l-11 -201h-190l-17 297q150 74 222 140t71 155q0 147 -202 147q-170 0 -301 -108l-91 194q72 62 186 102t240 40q207 0 315 -89t107 -247z" />
    <glyph glyph-name="grave.sc" 
d="M586 1413h-195l-248 264h295z" />
    <glyph glyph-name="a.sc" horiz-adv-x="1374" 
d="M680 1126l-209 -628h416l-154 469l-47 159h-6zM1053 0l-92 279h-564l-94 -279h-280l505 1329h310l512 -1329h-297z" />
    <glyph glyph-name="b.sc" horiz-adv-x="1275" 
d="M895 943q0 87 -46 125t-149 38h-290v-330h303q94 0 138 40t44 127zM938 406q0 180 -217 180h-313v-369h319q111 1 161 43t50 146zM1200 385q0 -385 -475 -385h-569v1329h553q217 0 327 -88t111 -250q0 -217 -184 -286v-5q237 -63 237 -315z" />
    <glyph glyph-name="c.sc" horiz-adv-x="1126" 
d="M729 1116q-209 0 -293 -98t-84 -352t85 -356t296 -101q150 0 289 59l29 -215q-162 -78 -353 -78q-315 0 -468 172q-152 173 -152 519t155 516q156 170 484 170q180 -1 330 -60l-31 -229q-127 53 -287 53z" />
    <glyph glyph-name="d.sc" horiz-adv-x="1363" 
d="M1014 665q0 249 -78 337t-270 90h-248v-856h248q190 0 269 90t79 339zM670 1329q326 1 472 -159t146 -506t-152 -505t-464 -159h-516v1329h514z" />
    <glyph glyph-name="e.sc" horiz-adv-x="1173" 
d="M418 231h682l-8 -231h-936v1329h909l4 -235h-651v-306h553v-206h-553v-351z" />
    <glyph glyph-name="f.sc" horiz-adv-x="1132" 
d="M420 1090v-324h561l-2 -227h-559v-539h-264v1329h907l6 -239h-649z" />
    <glyph glyph-name="g.sc" horiz-adv-x="1257" 
d="M1149 707v-656q-168 -76 -416 -76q-344 0 -500 169q-155 170 -155 520t159 520t502 170q211 0 383 -66l-26 -229q-158 59 -362 59t-292 -98q-90 -98 -90 -355t83 -355t290 -99q106 0 188 25v471h236z" />
    <glyph glyph-name="h.sc" horiz-adv-x="1406" 
d="M1251 0h-264v561h-567v-561h-264v1329h264v-528h567v528h264v-1329z" />
    <glyph glyph-name="i.sc" horiz-adv-x="620" 
d="M176 0v1329h268v-1329h-268z" />
    <glyph glyph-name="j.sc" horiz-adv-x="931" 
d="M795 1329v-870q0 -483 -453 -484q-170 0 -279 66l17 223q92 -59 215 -59t178 60t55 194v870h267z" />
    <glyph glyph-name="k.sc" horiz-adv-x="1343" 
d="M418 575v-575h-262v1329h262v-536h184l377 536h305l-450 -631l475 -698h-326l-389 575h-176z" />
    <glyph glyph-name="l.sc" horiz-adv-x="1081" 
d="M420 238h616l-6 -238h-874v1329h264v-1091z" />
    <glyph glyph-name="m.sc" horiz-adv-x="1730" 
d="M156 1329h290l353 -821l63 -154h6l62 152l358 823h287v-1329h-240v766l4 166l-6 2l-61 -156l-324 -778h-172l-321 762l-62 156l-4 -3l2 -165v-750h-235v1329z" />
    <glyph glyph-name="n.sc" horiz-adv-x="1419" 
d="M1262 0h-209l-568 803l-92 137l-4 -2l2 -166v-772h-235v1329h225l553 -774l94 -135l4 2l-4 164v743h234v-1329z" />
    <glyph glyph-name="o.sc" horiz-adv-x="1368" 
d="M352 665q0 -259 74 -357t259 -97q185 -1 257 97t72 357t-72 354t-258 95t-259 -95t-73 -354zM1290 663q0 -357 -142 -523t-462 -165q-320 0 -465 167q-143 166 -143 522t142 521t464 165t464 -165t142 -522z" />
    <glyph glyph-name="p.sc" horiz-adv-x="1245" 
d="M899 882q0 128 -57 177t-195 49h-229v-446h231q137 0 194 46q56 46 56 174zM1169 891q0 -221 -125 -332t-395 -110h-229v-449h-264v1329h493q272 0 397 -108q123 -109 123 -330z" />
    <glyph glyph-name="q.sc" horiz-adv-x="1390" 
d="M697 211q185 -1 257 97t72 357t-72 354t-258 95t-259 -95t-73 -354t74 -357q74 -97 259 -97zM1303 664q1 -285 -87 -445t-278 -211v-6l129 -100l139 -113l-305 -45l-242 231q-299 9 -434 177t-135 518t142 515t464 165t464 -165t143 -521z" />
    <glyph glyph-name="r.sc" horiz-adv-x="1286" 
d="M655 711q121 1 171 45t51 154q-1 110 -49 156q-48 44 -169 44h-239v-399h235zM1151 926q0 -144 -65 -238t-185 -125l342 -563h-313l-271 510h-239v-510h-264v1329h503q492 0 492 -403z" />
    <glyph glyph-name="s.sc" horiz-adv-x="1093" 
d="M1022 393q0 -193 -133 -305t-373 -113q-240 0 -426 103l37 229q190 -104 393 -104q250 0 250 174q0 65 -69 107t-167 71t-198 68q-98 39 -167 121t-69 210q0 174 122 286t352 112t403 -72l-35 -223q-188 61 -344 61q-246 0 -246 -151q0 -89 133 -136q59 -20 130 -40
q163 -46 274 -121q59 -41 96 -112t37 -165z" />
    <glyph glyph-name="t.sc" horiz-adv-x="1112" 
d="M690 1094v-1094h-268v1094h-395l4 235h1050l4 -235h-395z" />
    <glyph glyph-name="u.sc" horiz-adv-x="1388" 
d="M1249 1329v-835q0 -518 -556 -518t-556 518v835h264v-833q0 -145 72 -213q71 -68 223 -68t222 68t69 213v833h262z" />
    <glyph glyph-name="v.sc" horiz-adv-x="1337" 
d="M1032 1329h277l-494 -1329h-293l-493 1329h293l350 -1089h6l47 157z" />
    <glyph glyph-name="w.sc" horiz-adv-x="1945" 
d="M834 1329h288l258 -1091h6l29 161l195 930h262l-336 -1329h-317l-209 913l-33 164h-6l-35 -164l-209 -913h-315l-340 1329h276l193 -940l30 -162h7l32 162z" />
    <glyph glyph-name="x.sc" horiz-adv-x="1345" 
d="M1268 1329l-408 -635l428 -694h-305l-229 393l-78 146h-6l-78 -148l-223 -391h-312l418 688l-405 641h319l285 -481l287 481h307z" />
    <glyph glyph-name="y.sc" horiz-adv-x="1306" 
d="M795 0h-273v436l-493 893h301l260 -528l69 -150h7l67 150l254 528h291l-483 -893v-436z" />
    <glyph glyph-name="z.sc" horiz-adv-x="1181" 
d="M86 0v172l573 784l99 129l-2 5h-652l11 239h970v-194l-565 -766l-98 -125l2 -6h668l-5 -238h-1001z" />
    <glyph glyph-name="exclamdown.sc" horiz-adv-x="618" 
d="M459 1227q1 -141 -153 -141t-154 140t153 140q80 0 117 -33t37 -106zM205 911h211l33 -1101h-277z" />
    <glyph glyph-name="dieresis.sc" 
d="M707 1555q0 -103 -112 -103t-112 103t112 103t112 -103zM346 1555q0 -103 -110 -103t-111 103q1 103 111 103t110 -103z" />
    <glyph glyph-name="macron.sc" 
d="M725 1604v-148h-619v148h619z" />
    <glyph glyph-name="acute.sc" 
d="M461 1677h317l-291 -264h-215z" />
    <glyph glyph-name="cedilla.sc" 
d="M236 -389l139 407l172 5l-74 -412h-237z" />
    <glyph glyph-name="questiondown.sc" horiz-adv-x="1062" 
d="M707 1227q0 -141 -154 -141t-154 140t154 140q80 0 117 -33t37 -106zM80 172q0 309 358 500l13 239h204l15 -340q-164 -92 -243 -173t-79 -185q0 -174 225 -174q186 0 332 125l94 -213q-79 -72 -201 -115t-259 -43q-225 -1 -342 99t-117 280z" />
    <glyph glyph-name="germandbls.sc" horiz-adv-x="1433" 
d="M1130 809l-419 420l-105 -105l105 -104l-209 -211l104 -104l211 210l105 -106l-211 -209l106 -104zM1153 809l-442 -440l-441 440l441 442z" />
    <glyph glyph-name="agrave.sc" horiz-adv-x="1374" 
d="M842 1413h-195l-248 264h295zM680 1126l-209 -628h416l-154 469l-47 159h-6zM1053 0l-92 279h-564l-94 -279h-280l505 1329h310l512 -1329h-297z" />
    <glyph glyph-name="aacute.sc" horiz-adv-x="1374" 
d="M725 1677h317l-290 -264h-215zM680 1126l-209 -628h416l-154 469l-47 159h-6zM1053 0l-92 279h-564l-94 -279h-280l505 1329h310l512 -1329h-297z" />
    <glyph glyph-name="acircumflex.sc" horiz-adv-x="1374" 
d="M565 1677h228l208 -264h-200l-121 170l-121 -170h-199zM680 1126l-209 -628h416l-154 469l-47 159h-6zM1053 0l-92 279h-564l-94 -279h-280l505 1329h310l512 -1329h-297z" />
    <glyph glyph-name="atilde.sc" horiz-adv-x="1374" 
d="M817 1593q57 0 76 74l121 -2q-6 -95 -58 -153t-129 -58t-155 48t-113 48q-58 1 -78 -73h-121q8 94 60 154q52 61 128 61t154 -50t115 -49zM680 1126l-209 -628h416l-154 469l-47 159h-6zM1053 0l-92 279h-564l-94 -279h-280l505 1329h310l512 -1329h-297z" />
    <glyph glyph-name="adieresis.sc" horiz-adv-x="1374" 
d="M862 1658q112 0 111 -103q0 -103 -112 -103t-111 104q0 102 112 102zM612 1555q0 -103 -110 -103t-111 103q1 103 111 103t110 -103zM680 1126l-209 -628h416l-154 469l-47 159h-6zM1053 0l-92 279h-564l-94 -279h-280l505 1329h310l512 -1329h-297z" />
    <glyph glyph-name="aring.sc" horiz-adv-x="1374" 
d="M573 1460q0 -76 112 -76t112 76t-112 76t-112 -76zM680 1126l-209 -628h416l-154 469l-47 159h-6zM438 1460q0 186 244 187q121 1 183 -51q63 -52 63 -148t-82 -141l504 -1307h-297l-92 279h-564l-94 -279h-280l495 1305q-80 46 -80 155z" />
    <glyph glyph-name="ae.sc" horiz-adv-x="1964" 
d="M936 1141l-76 -150l-264 -493h395l-39 475l-10 166zM1761 788v-206h-508l29 -351h606l-6 -231h-850l-24 281h-527l-149 -281h-316l777 1329h1069l6 -233h-658l27 -308h524z" />
    <glyph glyph-name="ccedilla.sc" horiz-adv-x="1126" 
d="M717 1352q180 0 330 -60l-31 -229q-127 53 -287 53q-209 0 -293 -98t-84 -352t85 -356t296 -101q150 0 289 59l29 -215q-135 -66 -306 -76l-65 -366h-238l127 373q-492 63 -491 690q0 338 155 508q156 170 484 170z" />
    <glyph glyph-name="egrave.sc" horiz-adv-x="1173" 
d="M795 1413h-195l-248 264h295zM418 231h682l-8 -231h-936v1329h909l4 -235h-651v-306h553v-206h-553v-351z" />
    <glyph glyph-name="eacute.sc" horiz-adv-x="1173" 
d="M676 1677h317l-291 -264h-215zM418 231h682l-8 -231h-936v1329h909l4 -235h-651v-306h553v-206h-553v-351z" />
    <glyph glyph-name="ecircumflex.sc" horiz-adv-x="1173" 
d="M518 1677h227l209 -264h-200l-121 170l-121 -170h-199zM418 231h682l-8 -231h-936v1329h909l4 -235h-651v-306h553v-206h-553v-351z" />
    <glyph glyph-name="edieresis.sc" horiz-adv-x="1173" 
d="M926 1555q0 -103 -112 -103t-112 103t112 103t112 -103zM565 1555q-1 -103 -111 -103t-110 103t110 103t111 -103zM418 231h682l-8 -231h-936v1329h909l4 -235h-651v-306h553v-206h-553v-351z" />
    <glyph glyph-name="igrave.sc" horiz-adv-x="620" 
d="M469 1413h-195l-247 264h295zM176 0v1329h268v-1329h-268z" />
    <glyph glyph-name="iacute.sc" horiz-adv-x="620" 
d="M350 1677h318l-291 -264h-215zM176 0v1329h268v-1329h-268z" />
    <glyph glyph-name="icircumflex.sc" horiz-adv-x="620" 
d="M190 1677h228l209 -264h-201l-121 170l-121 -170h-198zM176 0v1329h268v-1329h-268z" />
    <glyph glyph-name="idieresis.sc" horiz-adv-x="620" 
d="M486 1658q112 0 112 -103t-112 -103t-111 104q-1 102 111 102zM127 1452q-111 0 -111 103t111 103t111 -103t-111 -103zM176 0v1329h268v-1329h-268z" />
    <glyph glyph-name="eth.sc" horiz-adv-x="1380" 
d="M1030 665q0 249 -78 337t-270 90h-248v-306h236v-186h-236v-364h248q190 0 269 90t79 339zM686 1329q326 1 472 -159t147 -506q0 -346 -152 -505t-465 -159h-516v600h-143v186h143v543h514z" />
    <glyph glyph-name="ntilde.sc" horiz-adv-x="1419" 
d="M838 1593q57 0 75 74l121 -2q-6 -95 -58 -153t-128 -58t-155 48t-113 48q-58 1 -78 -73h-121q8 94 59 154q51 61 128 61t155 -50t115 -49zM1262 0h-209l-568 803l-92 137l-4 -2l2 -166v-772h-235v1329h225l553 -774l94 -135l4 2l-4 164v743h234v-1329z" />
    <glyph glyph-name="ograve.sc" horiz-adv-x="1368" 
d="M846 1413h-195l-248 264h295zM352 665q0 -259 74 -357t259 -97q185 -1 257 97t72 357t-72 354t-258 95t-259 -95t-73 -354zM1290 663q0 -357 -142 -523t-462 -165q-320 0 -465 167q-143 166 -143 522t142 521t464 165t464 -165t142 -522z" />
    <glyph glyph-name="oacute.sc" horiz-adv-x="1368" 
d="M727 1677h317l-290 -264h-215zM352 665q0 -259 74 -357t259 -97q185 -1 257 97t72 357t-72 354t-258 95t-259 -95t-73 -354zM1290 663q0 -357 -142 -523t-462 -165q-320 0 -465 167q-143 166 -143 522t142 521t464 165t464 -165t142 -522z" />
    <glyph glyph-name="ocircumflex.sc" horiz-adv-x="1368" 
d="M567 1677h228l209 -264h-201l-121 170l-121 -170h-199zM352 665q0 -259 74 -357t259 -97q185 -1 257 97t72 357t-72 354t-258 95t-259 -95t-73 -354zM1290 663q0 -357 -142 -523t-462 -165q-320 0 -465 167q-143 166 -143 522t142 521t464 165t464 -165t142 -522z" />
    <glyph glyph-name="otilde.sc" horiz-adv-x="1368" 
d="M819 1593q57 0 76 74l121 -2q-6 -95 -58 -153t-129 -58t-155 48t-113 48q-58 1 -78 -73h-121q8 94 60 154q52 61 128 61q77 0 155 -50t114 -49zM352 665q0 -259 74 -357t259 -97q185 -1 257 97t72 357t-72 354t-258 95t-259 -95t-73 -354zM1290 663q0 -357 -142 -523
t-462 -165q-320 0 -465 167q-143 166 -143 522t142 521t464 165t464 -165t142 -522z" />
    <glyph glyph-name="odieresis.sc" horiz-adv-x="1368" 
d="M864 1658q112 0 111 -103q0 -103 -112 -103t-111 104q0 102 112 102zM614 1555q0 -103 -110 -103t-111 103q1 103 111 103t110 -103zM352 665q0 -259 74 -357t259 -97q185 -1 257 97t72 357t-72 354t-258 95t-259 -95t-73 -354zM1290 663q0 -357 -142 -523t-462 -165
q-320 0 -465 167q-143 166 -143 522t142 521t464 165t464 -165t142 -522z" />
    <glyph glyph-name="oslash.sc" horiz-adv-x="1368" 
d="M1016 664q0 154 -23 260l-6 2l-104 -127l-441 -508q72 -80 251 -80q179 -1 251 97t72 356zM354 664q0 -166 27 -265h4l104 127l441 510q-72 78 -251 78t-252 -95t-73 -355zM78 690q0 328 143 494t465 166q254 0 397 -105l103 121l119 -115l-109 -131q96 -162 96 -456
q0 -358 -142 -524t-464 -165q-258 0 -397 105l-90 -113l-119 111l98 125q-100 159 -100 487z" />
    <glyph glyph-name="ugrave.sc" horiz-adv-x="1388" 
d="M856 1413h-194l-248 264h295zM1249 1329v-835q0 -518 -556 -518t-556 518v835h264v-833q0 -145 72 -213q71 -68 223 -68t222 68t69 213v833h262z" />
    <glyph glyph-name="uacute.sc" horiz-adv-x="1388" 
d="M737 1677h318l-291 -264h-215zM1249 1329v-835q0 -518 -556 -518t-556 518v835h264v-833q0 -145 72 -213q71 -68 223 -68t222 68t69 213v833h262z" />
    <glyph glyph-name="ucircumflex.sc" horiz-adv-x="1388" 
d="M578 1677h227l209 -264h-201l-121 170l-121 -170h-198zM1249 1329v-835q0 -518 -556 -518t-556 518v835h264v-833q0 -145 72 -213q71 -68 223 -68t222 68t69 213v833h262z" />
    <glyph glyph-name="udieresis.sc" horiz-adv-x="1388" 
d="M874 1658q112 0 111 -103q0 -103 -112 -103t-111 104q0 102 112 102zM514 1452q-111 0 -111 103t111 103t111 -103t-111 -103zM1249 1329v-835q0 -518 -556 -518t-556 518v835h264v-833q0 -145 72 -213q71 -68 223 -68t222 68t69 213v833h262z" />
    <glyph glyph-name="yacute.sc" horiz-adv-x="1306" 
d="M702 1677h318l-291 -264h-215zM795 0h-273v436l-493 893h301l260 -528l69 -150h7l67 150l254 528h291l-483 -893v-436z" />
    <glyph glyph-name="thorn.sc" horiz-adv-x="1255" 
d="M899 673q0 128 -62 176t-216 48h-203v-448h203q154 0 216 48t62 176zM621 1118q291 0 419 -108t129 -329q0 -222 -130 -333t-418 -110h-201v-238h-264v1329h264v-211h201z" />
    <glyph glyph-name="ydieresis.sc" horiz-adv-x="1306" 
d="M950 1555q0 -103 -112 -103t-111 103q-1 103 111 103t112 -103zM480 1658q110 0 110 -103t-111 -103t-110 104q1 102 111 102zM795 0h-273v436l-493 893h301l260 -528l69 -150h7l67 150l254 528h291l-483 -893v-436z" />
    <glyph glyph-name="dotlessi.sc" horiz-adv-x="620" 
d="M176 0v1329h268v-1329h-268z" />
    <glyph glyph-name="ij.sc" horiz-adv-x="1550" 
d="M176 0v1329h268v-1329h-268zM1413 1329v-870q0 -483 -452 -484q-170 0 -279 66l16 223q92 -59 215 -59t179 60q55 60 55 194v870h266z" />
    <glyph glyph-name="lslash.sc" horiz-adv-x="1128" 
d="M469 238h616l-6 -238h-874v535l-146 -62l-12 217l158 66v573h264v-471l383 164l16 -225l-399 -166v-393z" />
    <glyph glyph-name="oe.sc" horiz-adv-x="1998" 
d="M1001 665q0 259 -69 353q-70 94 -254 94t-256 -94t-72 -353t73 -355t254 -97q181 0 253 96q71 97 71 356zM1020 0v131l-4 2q-128 -158 -398 -158t-405 168q-135 167 -135 521t133 520t407 166t398 -140h4v119h870l6 -237h-639v-301h541v-211h-541v-347h668l-4 -233h-901z
" />
    <glyph glyph-name="scaron.sc" horiz-adv-x="1093" 
d="M686 1413h-229l-205 264h199l120 -174l121 174h203zM1022 393q0 -193 -133 -305t-373 -113q-240 0 -426 103l37 229q190 -104 393 -104q250 0 250 174q0 65 -69 107t-167 71t-198 68q-98 39 -167 121t-69 210q0 174 122 286t352 112t403 -72l-35 -223q-188 61 -344 61
q-246 0 -246 -151q0 -89 133 -136q59 -20 130 -40q163 -46 274 -121q59 -41 96 -112t37 -165z" />
    <glyph glyph-name="zcaron.sc" horiz-adv-x="1181" 
d="M711 1413h-230l-205 264h199l121 -174l121 174h203zM86 0v172l573 784l99 129l-2 5h-652l11 239h970v-194l-565 -766l-98 -125l2 -6h668l-5 -238h-1001z" />
    <glyph glyph-name="circumflex.sc" 
d="M297 1677h227l209 -264h-201l-120 170l-121 -170h-199z" />
    <glyph glyph-name="caron.sc" 
d="M528 1413h-229l-205 264h199l121 -174l121 174h202z" />
    <glyph glyph-name="breve.sc" 
d="M539 1677h180q0 -274 -308 -274t-309 274h177q2 -150 133 -149q127 -1 127 149z" />
    <glyph glyph-name="dotaccent.sc" 
d="M555 1548q0 -109 -141 -108q-72 0 -107 24t-35 84q0 109 142 109t141 -109z" />
    <glyph glyph-name="ring.sc" 
d="M305 1522q0 -76 112 -76t111 76q0 76 -112 76t-111 -76zM170 1522q0 186 244 186q121 0 183 -51t62 -135q-1 -186 -245 -186t-244 186z" />
    <glyph glyph-name="ogonek.sc" 
d="M483 -127q0 -88 113 -90q55 0 109 24l22 -141q-92 -49 -207 -49t-176 49t-61 137t64 151q65 62 171 87l98 -41q-55 0 -94 -39t-39 -88z" />
    <glyph glyph-name="tilde.sc" 
d="M549 1593q57 0 76 74l120 -2q-6 -95 -58 -153t-128 -58t-155 48t-113 48q-58 1 -78 -73h-121q8 94 60 154q52 61 128 61t154 -50t115 -49z" />
    <glyph glyph-name="hungarumlaut.sc" 
d="M664 1677h266l-246 -264h-188zM301 1677h262l-227 -264h-166z" />
    <glyph glyph-name="fi.sc" horiz-adv-x="1433" 
d="M1130 809l-419 420l-105 -105l105 -104l-209 -211l104 -104l211 210l105 -106l-211 -209l106 -104zM1153 809l-442 -440l-441 440l441 442z" />
    <glyph glyph-name="fl.sc" horiz-adv-x="1433" 
d="M1130 809l-419 420l-105 -105l105 -104l-209 -211l104 -104l211 210l105 -106l-211 -209l106 -104zM1153 809l-442 -440l-441 440l441 442z" />
    <glyph glyph-name="dollar.subs" horiz-adv-x="669" 
d="M395 330q-133 0 -133 -72q0 -38 60 -60t130 -36q71 -14 130 -68t59 -148t-56 -156t-161 -79l-8 -143h-144l9 141q-111 10 -195 53l23 156q113 -63 237 -63t123 79q0 62 -189 102q-71 15 -130 68q-60 54 -60 144t57 154t175 79l12 152h143l-12 -154q57 -6 149 -35
l-22 -149q-115 35 -197 35z" />
    <glyph glyph-name="comma.subs" horiz-adv-x="339" 
d="M166 -133q53 0 80 -26q56 -54 -7 -198q-34 -75 -77 -126l-66 14l33 141q-25 10 -45 35t-21 55q1 105 103 105z" />
    <glyph glyph-name="period.subs" horiz-adv-x="339" 
d="M276 -229q0 -98 -106 -99q-55 0 -81 23t-26 76q0 100 107 100q58 -1 82 -25t24 -75z" />
    <glyph glyph-name="cent.subs" horiz-adv-x="669" 
d="M441 324q-97 0 -142 -50t-45 -170q0 -231 203 -231q82 0 157 33l13 -137q-63 -39 -156 -48l-8 -153h-148l11 160q-266 42 -266 382t300 369l13 154h147l-14 -156q51 -8 112 -31l-10 -149q-70 27 -167 27z" />
    <glyph glyph-name="dollar.sups" horiz-adv-x="669" 
d="M395 1649q-133 0 -133 -72q0 -37 60 -59t130 -37q71 -13 130 -67t59 -149t-56 -157t-161 -80l-8 -141h-144l9 139q-121 14 -195 57l23 154q113 -63 237 -63t123 79q0 62 -189 102q-71 15 -130 68q-60 53 -60 143t57 156q57 64 175 78l12 152h143l-12 -152q66 -8 149 -37
l-22 -149q-115 35 -197 35z" />
    <glyph glyph-name="comma.sups" horiz-adv-x="339" 
d="M166 1186q53 0 80 -26q56 -54 -7 -198q-34 -75 -77 -126l-66 14l33 141q-25 10 -45 35t-21 55q1 105 103 105z" />
    <glyph glyph-name="period.sups" horiz-adv-x="339" 
d="M276 1090q0 -98 -106 -99q-55 0 -81 23t-26 76q0 100 107 100q58 0 82 -24t24 -76z" />
    <glyph glyph-name="cent.sups" horiz-adv-x="669" 
d="M254 1423q0 -231 203 -231q82 0 157 33l13 -135q-55 -37 -156 -50l-8 -153h-148l11 157q-266 47 -266 386t300 368l13 154h147l-14 -156q51 -8 112 -31l-10 -147q-74 24 -169 24t-140 -50t-45 -169z" />
    <glyph glyph-name="numbersign.tf" horiz-adv-x="1320" 
d="M588 924l-45 -312h205l43 312h-203zM121 612h215l45 312h-258v204h283l53 408h207l-54 -408h203l51 408h205l-55 -408h188v-204h-211l-43 -312h252v-206h-276l-54 -406h-202l51 406h-203l-53 -406h-207l53 406h-190v206z" />
    <glyph glyph-name="dollar.tf" horiz-adv-x="1320" 
d="M393 1144q-1 -73 57 -113t171 -79l45 363q-139 -2 -206 -50t-67 -121zM969 406q-1 74 -61 120t-175 90l-55 -413q291 6 291 203zM1184 442q0 -240 -129 -354t-406 -117l-18 -139l-146 14l17 134q-219 25 -346 96q19 165 32 252q158 -88 342 -117l56 459q-260 99 -347 203
t-85 249q0 209 138 322t404 117l17 133l159 -15l-16 -127q160 -20 250 -61l-16 -242q-129 43 -267 58l-53 -404q306 -105 380 -280q34 -78 34 -181z" />
    <glyph glyph-name="cent.tf" horiz-adv-x="1320" 
d="M469 616q1 -414 315 -413q150 0 254 57l19 -209q-96 -63 -250 -76l-14 -251h-205l16 262q-406 72 -406 641t455 618l19 250h202l-18 -252q99 -12 191 -47l-17 -229q-111 47 -227 47q-184 0 -259 -90t-75 -308z" />
    <glyph glyph-name="sterling.tf" horiz-adv-x="1320" 
d="M203 1112q0 199 136 324t435 125q205 0 377 -70l-33 -242q-145 61 -313 62q-324 0 -324 -232q0 -86 37 -211h516v-211h-465q10 -68 11 -129q0 -203 -144 -295l2 -4q158 35 378 35t409 -24l-15 -254q-482 58 -1073 4l-12 246q92 24 144 102q81 121 40 319h-149l-10 211
h102q-49 143 -49 244z" />
    <glyph glyph-name="currency.tf" horiz-adv-x="1320" 
d="M446 743q0 -84 62 -142t149 -58q88 0 149 58q60 58 60 142q0 85 -60 143t-148 58t-150 -58t-62 -143zM276 744q0 104 54 192l-137 141l135 146l141 -146q88 49 189 49t188 -51l147 150l133 -146l-141 -145q53 -88 53 -190t-45 -187l131 -135l-133 -146l-131 134
q-92 -58 -203 -58t-200 58l-131 -134l-133 146l129 131q-46 87 -46 191z" />
    <glyph glyph-name="yen.tf" horiz-adv-x="1320" 
d="M252 717h192l-389 819h312l292 -836h7l51 156l241 680h304l-379 -819h196v-162h-264v-90h266v-162h-266v-303h-299v303h-264v162h264v90h-264v162z" />
    <glyph glyph-name="franc.tf" horiz-adv-x="1320" 
d="M53 393h156v1143h977l6 -262h-700v-375h540l-2 -248h-538v-258h167v-194h-167v-199h-283v199h-156v194z" />
    <glyph glyph-name="lira.tf" horiz-adv-x="1320" 
d="M820 264q222 0 407 -24q0 -2 -6 -125t-9 -129q-485 57 -1071 4l-14 246q92 24 144 102t53 178q0 29 -2 43h-142l-6 150h127q-10 43 -29 102h-102l-10 152h65q-20 78 -20 149q0 199 136 324t437 125q203 0 375 -70l-33 -242q-145 61 -312 61t-246 -66q-79 -67 -79 -175
q0 -49 11 -106h563v-152h-520q14 -43 26 -102h494v-150h-475l2 -31q0 -203 -146 -295l2 -4q158 35 380 35z" />
    <glyph glyph-name="peseta.tf" horiz-adv-x="1347" 
d="M649 752q125 0 186 44q60 44 72 160h-485v-204h227zM422 1303v-209h485q-10 116 -70 162t-188 47h-227zM424 528v-528h-264v956h-109v138h109v442h489q264 0 389 -105t142 -337h106l-2 -138h-106q-16 -217 -142 -322t-387 -106h-225z" />
    <glyph glyph-name="Euro.tf" horiz-adv-x="1320" 
d="M932 211q164 0 323 80l21 -215q-162 -94 -424 -94q-532 0 -606 581h-176v146h163v106h-163v150h176q41 274 207 428t438 153q221 0 366 -67l-55 -230q-123 47 -252 47q-348 0 -415 -331h571l-35 -150h-555v-106h514l-35 -146h-465q34 -186 136 -269t266 -83z" />
    <glyph glyph-name="numbersign.tosf" horiz-adv-x="1228" 
d="M516 797l-41 -260h234l43 260h-236zM80 537h190l45 260h-233v188h258l51 344h203l-51 -344h235l51 344h199l-51 -344h170v-188h-197l-41 -260h238v-189h-264l-52 -348h-198l51 348h-235l-54 -348h-200l51 348h-166v189z" />
    <glyph glyph-name="dollar.tosf" horiz-adv-x="1228" 
d="M1094 383q0 -166 -98 -272t-302 -129l-18 -267h-219l18 267q-199 16 -334 94l37 233q172 -109 414 -108q117 0 173 42t56 99t-38 88t-97 49q-59 17 -133 35q-167 40 -279 109q-59 37 -97 103t-38 155q1 153 103 249t301 117l20 262h219l-22 -262q135 -14 282 -67
l-24 -232q-178 70 -371 70q-227 0 -227 -125q0 -57 70 -91t167 -56t197 -54t170 -110t70 -199z" />
    <glyph glyph-name="zero.tosf" horiz-adv-x="1228" 
d="M893 649q0 254 -66 347q-67 94 -215 94t-214 -94t-64 -348q0 -255 64 -346t216 -91q150 0 214 92t65 346zM1155 653q0 -352 -130 -513q-130 -160 -414 -160q-283 0 -411 160t-128 513q0 352 128 512t414 160t413 -160q128 -160 128 -512z" />
    <glyph glyph-name="one.tosf" horiz-adv-x="1228" 
d="M231 0v164h318v827l-359 -198l-26 221l493 293h160v-1143h297v-164h-883z" />
    <glyph glyph-name="two.tosf" horiz-adv-x="1228" 
d="M500 227h602l-8 -227h-953v176q68 57 207 172q138 115 198 168q200 178 249 275q31 61 31 131t-65 118q-65 47 -198 47q-188 0 -364 -122l-68 213q209 145 462 145q253 1 378 -105t125 -288t-167 -350q-89 -90 -180 -162t-249 -185v-6z" />
    <glyph glyph-name="three.tosf" horiz-adv-x="1228" 
d="M1104 348q0 -270 -217 -418t-613 -155l-24 217q311 8 457 103q145 95 145 247q0 203 -277 203q-72 0 -137 -13l-12 185q223 25 306 73t83 140q0 162 -258 162q-211 0 -373 -115l-61 211q80 61 201 99t249 38q233 0 357 -98t123 -260q0 -209 -174 -295v-4
q225 -82 225 -320z" />
    <glyph glyph-name="four.tosf" horiz-adv-x="1228" 
d="M793 346l12 582l8 166l-4 2l-88 -142l-305 -471l-92 -131l2 -6h467zM1026 131v-342l-242 -14v356h-716l-21 174l680 1018l299 -20v-957h164l-8 -215h-156z" />
    <glyph glyph-name="five.tosf" horiz-adv-x="1228" 
d="M1106 371q0 -274 -215 -433t-625 -163l-24 227q300 4 452 96t152 246q0 197 -289 197q-176 0 -313 -66l-92 107l61 725h817l12 -252h-622l-27 -322q121 35 244 35q225 0 347 -104t122 -293z" />
    <glyph glyph-name="six.tosf" horiz-adv-x="1228" 
d="M883 526q-1 117 -61 172t-189 56q-72 0 -150 -31t-121 -82q2 -236 68 -329t203 -93q250 0 250 307zM1141 526q0 -274 -131 -409t-379 -135q-537 0 -537 682q0 212 67 378q126 312 446 433q148 55 319 59l37 -227q-262 -6 -417 -123t-190 -318l4 -4q145 102 322 103
q459 -1 459 -439z" />
    <glyph glyph-name="seven.tosf" horiz-adv-x="1228" 
d="M1118 1305v-226l-579 -1280h-295l592 1250h-727l16 256h993z" />
    <glyph glyph-name="eight.tosf" horiz-adv-x="1228" 
d="M385 963q0 -68 49 -100q29 -19 56 -38t217 -65q154 76 153 186q0 86 -57 128t-189 42q-229 1 -229 -153zM889 360q0 64 -42 99q-24 19 -43 33q-18 14 -62 29t-66 23t-79 23q-56 16 -77 23q-182 -84 -182 -211q0 -98 66 -145q67 -46 221 -46q264 0 264 172zM82 375
q0 94 55 176t156 133q-156 100 -156 289q0 350 479 350t480 -350q0 -180 -164 -283v-4q219 -94 219 -311q-1 -397 -535 -397t-534 397z" />
    <glyph glyph-name="nine.tosf" horiz-adv-x="1228" 
d="M594 1083q-238 1 -238 -239t248 -240q192 0 258 127q-2 190 -65 271t-203 81zM1124 692q0 -668 -501 -855q-147 -54 -328 -58l-25 223q240 8 396 127t188 342l-4 4q-122 -98 -318 -98t-316 117t-120 345t128 356t380 128t386 -158t134 -473z" />
    <glyph glyph-name="cent.tosf" horiz-adv-x="1228" 
d="M418 614q0 -211 99 -306t275 -95t302 66l20 -218q-111 -72 -297 -84l-18 -266h-215l18 273q-467 72 -467 643t524 618l21 264h215l-23 -268q130 -16 230 -53l-17 -236q-139 51 -278 52q-213 0 -301 -90t-88 -300z" />
    <glyph glyph-name="sterling.tosf" horiz-adv-x="1228" 
d="M160 944q0 178 128 291t419 113q201 0 364 -62l-35 -217q-139 53 -305 53q-305 0 -305 -200q0 -66 27 -164h497v-193h-450q10 -57 10 -108q0 -172 -125 -250l2 -4q167 35 359 35t389 -25l-15 -225q-493 49 -1024 4l-8 219q82 20 127 85q45 64 45 138t-12 131h-133
l-11 193h89q-33 106 -33 186z" />
    <glyph glyph-name="currency.tosf" horiz-adv-x="1228" 
d="M412 673q0 -81 58 -137t142 -56t142 56t59 137q0 81 -58 137q-59 56 -143 56t-142 -56t-58 -137zM238 671q0 103 51 193l-133 137l133 146l139 -146q88 49 184 49t185 -49l143 146l133 -146l-137 -141q51 -92 51 -187t-43 -181l127 -134l-133 -143l-127 131
q-90 -57 -199 -57t-198 55l-127 -129l-131 143l125 129q-43 81 -43 184z" />
    <glyph glyph-name="yen.tosf" horiz-adv-x="1228" 
d="M227 614h187l-377 715h285l227 -530l63 -154h6l60 154l227 530h279l-367 -715h191v-131h-254v-94h254v-131h-254v-258h-277v258h-250v131h250v94h-250v131z" />
    <glyph glyph-name="franc.tosf" horiz-adv-x="1228" 
d="M70 346h145v983h922l6 -233h-670v-316h510l-2 -221h-508v-213h158v-174h-158v-172h-258v172h-145v174z" />
    <glyph glyph-name="lira.tosf" horiz-adv-x="1228" 
d="M164 944q0 178 128 291t419 113q203 0 362 -62l-33 -217q-139 53 -305 53q-307 0 -307 -200q0 -45 10 -93h533v-129h-498q16 -57 23 -88h475v-129h-457v-26q0 -174 -123 -248l2 -4q169 33 359 33t387 -25l-15 -225q-493 49 -1024 4l-8 219q82 20 127 85t45 144l-2 43
h-125l-8 129h113q-2 6 -25 88h-90l-10 129h61q-14 51 -14 115z" />
    <glyph glyph-name="peseta.tosf" horiz-adv-x="1228" 
d="M602 666q111 0 165 32t67 125h-443v-157h211zM391 1114v-168h443q-10 92 -64 130t-168 38h-211zM1198 825h-108q-16 -184 -134 -275t-354 -91h-209v-459h-248v823h-98v123h98v383h457q242 0 358 -92t130 -291h108v-121z" />
    <glyph glyph-name="Euro.tosf" horiz-adv-x="1228" 
d="M826 1114q-156 0 -247 -60t-122 -190h571l-45 -137h-545v-115h508l-45 -131h-444q68 -279 379 -278q164 0 290 73l13 -208q-145 -94 -373 -95q-532 0 -612 508h-93v131h80v115h-80v137h95q84 485 618 486q231 0 385 -74l-65 -209q-112 47 -268 47z" />
    <glyph glyph-name="zero.zero" horiz-adv-x="1271" 
d="M635 772q98 0 98 -120t-98 -120q-51 0 -75 27t-23 92q0 121 98 121zM926 651q0 248 -68 337t-222 89t-224 -91q-68 -91 -68 -337t68 -336t224 -90t224 90q66 90 66 338zM1178 653q0 -352 -130 -513q-130 -160 -414 -160t-412 160t-128 513q0 352 128 512t414 160
t414 -160t128 -512z" />
    <glyph glyph-name="commaaccent" 
d="M299 1534q0 96 122 96t122 -102q0 -111 -158 -248l-61 29l47 133q-72 18 -72 92z" />
    <glyph glyph-name="commaccentturn" 
d="M541 1462q0 -94 -122 -94t-122 107q0 98 158 243l63 -30l-49 -132q72 -18 72 -94z" />
    <glyph glyph-name="f_j" horiz-adv-x="1443" 
d="M1120 1643q156 0 156 -122t-158 -122q-80 -1 -118 27t-37 94q1 123 157 123zM483 0h-260v1034h-168v199h168v53q-1 156 103 252t311 96q96 0 172 -22l-6 -176q-47 12 -111 12q-209 0 -209 -168v-47h766v-1235q0 -330 -327 -330q-84 0 -158 27l14 188q41 -12 80 -12
q131 0 131 135v1028h-506v-1034z" />
    <glyph glyph-name="orn001" horiz-adv-x="1458" 
d="M696 768l-53 -88q-166 23 -281 78q0 147 62 196q92 -104 272 -186zM821 680l-53 88q180 80 274 186q61 -49 62 -196q-113 -55 -283 -78zM731 559q156 0 301 47q-20 -131 -92 -209q-90 21 -204 21t-208 -21q-74 80 -100 209q147 -47 303 -47zM1158 582q67 160 67 303
q-1 143 -103 191t-393 48t-392 -47t-101 -191t66 -304t144 -236q12 -12 70 -87q130 -169 215 -169q86 0 213 169q55 73 70 87q78 76 144 236zM729 -29q-69 1 -139 57t-151 161t-83 108q-100 111 -178 309t-78 398q0 256 148 410t480 155q330 0 480 -155t150 -410
q0 -199 -78 -398t-178 -309q-149 -199 -226 -262q-77 -64 -147 -64z" />
    <glyph glyph-name="undercommaaccent" 
d="M264 -168q0 94 152 94t151 -104q0 -98 -190 -238l-80 29l55 129q-88 18 -88 90z" />
    </font>
</defs>
</svg>
